<?xml version="1.0" encoding="UTF-8" standalone="no"?>
<svg
   xmlns:dc="http://purl.org/dc/elements/1.1/"
   xmlns:cc="http://creativecommons.org/ns#"
   xmlns:rdf="http://www.w3.org/1999/02/22-rdf-syntax-ns#"
   xmlns:svg="http://www.w3.org/2000/svg"
   xmlns="http://www.w3.org/2000/svg"
   xmlns:sodipodi="http://sodipodi.sourceforge.net/DTD/sodipodi-0.dtd"
   xmlns:inkscape="http://www.inkscape.org/namespaces/inkscape"
   width="104"
   height="47.99999999999999"
   viewbox="0 0 104 49"
   id="svg3393"
   version="1.1"
   inkscape:version="0.91 r13725"
   sodipodi:docname="default_header_logo.svg">
  <sodipodi:namedview
     pagecolor="#ffffff"
     bordercolor="#666666"
     borderopacity="1"
     objecttolerance="10"
     gridtolerance="10"
     guidetolerance="10"
     inkscape:pageopacity="0"
     inkscape:pageshadow="2"
     inkscape:window-width="1202"
     inkscape:window-height="766"
     id="namedview3410"
     showgrid="false"
     inkscape:zoom="6.0721154"
     inkscape:cx="51.408305"
     inkscape:cy="31.746749"
     inkscape:window-x="39"
     inkscape:window-y="11"
     inkscape:window-maximized="0"
     inkscape:current-layer="svg3393" />
  <metadata
     id="metadata3010">image/svg+xml<rdf:RDF>
  <cc:Work
     rdf:about="">
    <dc:format>image/svg+xml</dc:format>
    <dc:type
       rdf:resource="http://purl.org/dc/dcmitype/StillImage" />
    <dc:title />
  </cc:Work>
</rdf:RDF>
</metadata>
  <defs
     id="defs3396">
    <clipPath
       clipPathUnits="userSpaceOnUse"
       id="clipPath3018">
      <path
         d="m-75.454964,152.283829l164.999985,0l0,-95.000008l-164.999985,0l0,95.000008z"
         id="path3020" />
    </clipPath>
  </defs>
  <g
     id="g3400">
    <title
       id="title3402">background</title>
    <rect
       x="-1"
       y="-1"
       width="27.999964"
       height="13.999983"
       id="canvas_background"
       fill="none" />
  </g>
  <g
     style="font-style:normal;font-weight:normal;font-size:22.5px;line-height:125%;font-family:sans-serif;letter-spacing:0px;word-spacing:0px;fill:#000000;fill-opacity:1;stroke:none;stroke-width:1px;stroke-linecap:butt;stroke-linejoin:miter;stroke-opacity:1"
     id="text3416">
    <path
       d="m 0.35129069,21.481322 c -0.05,0.325 0.175,0.55 0.475,0.55 l 2.95000001,0 c 0.25,0 0.45,-0.2 0.475,-0.4 l 1.1,-7.725 0.05,0 4.225,8.1 c 0.075,0.15 0.275,0.275 0.4250003,0.275 l 0.45,0 c 0.125,0 0.35,-0.125 0.425,-0.275 l 4.2,-8.1 0.05,0 1.125,7.725 c 0.025,0.2 0.25,0.4 0.475,0.4 l 2.95,0 c 0.3,0 0.525,-0.225 0.475,-0.55 l -2.825,-16.7999995 c -0.025,-0.225 -0.25,-0.4 -0.45,-0.4 l -0.4,0 c -0.125,0 -0.35,0.1 -0.425,0.25 l -5.8,10.7999995 -0.05,0 L 4.4512907,4.5313225 c -0.075,-0.15 -0.3,-0.25 -0.425,-0.25 l -0.4,0 c -0.2,0 -0.425,0.175 -0.45,0.4 L 0.35129069,21.481322 Z"
       style="font-style:normal;font-variant:normal;font-weight:500;font-stretch:normal;font-size:25px;font-family:'Brandon Text';-inkscape-font-specification:'Brandon Text Medium'"
       id="path3438" />
    <path
       d="m 21.698947,22.031322 2.75,0 c 0.5,0 0.775,-0.3 0.9,-0.6 l 0.9,-2 6.8,0 0.9,1.975 c 0.225,0.475 0.425,0.625 0.875,0.625 l 2.775,0 c 0.375,0 0.575,-0.325 0.425,-0.65 l -7.825,-16.8249995 c -0.075,-0.15 -0.25,-0.275 -0.425,-0.275 l -0.25,0 c -0.175,0 -0.35,0.125 -0.425,0.275 l -7.825,16.8249995 c -0.15,0.325 0.05,0.65 0.425,0.65 z m 6.05,-6 1.875,-4.125 0.025,0 1.9,4.125 -3.8,0 z"
       style="font-style:normal;font-variant:normal;font-weight:500;font-stretch:normal;font-size:25px;font-family:'Brandon Text';-inkscape-font-specification:'Brandon Text Medium'"
       id="path3440" />
    <path
       d="m 44.971994,22.281322 c 3.675,0 5.9,-2.6 5.9,-5.175 0,-3.4 -2.85,-4.625 -5.05,-5.7 -1.75,-0.85 -2.725,-1.4999995 -2.725,-2.3249995 0,-0.725 0.475,-1.375 1.525,-1.375 1.325,0 2.8,0.95 3.375,1.35 0.5,0.3 0.925,0.1 1.1,-0.175 l 1.275,-1.925 c 0.1,-0.175 0.15,-0.625 -0.15,-0.8 -0.75,-0.55 -2.75,-1.875 -5.35,-1.875 -3.85,0 -5.775,2.5 -5.775,4.975 0,2.9999995 2.425,4.3499995 4.85,5.5249995 1.65,0.8 2.575,1.475 2.575,2.525 0,0.875 -0.725,1.5 -1.725,1.5 -1.575,0 -2.85,-0.9 -3.55,-1.375 -0.25,-0.175 -0.65,-0.175 -0.85,0.15 l -1.15,2.025 c -0.175,0.325 -0.1,0.55 0.1,0.75 0.575,0.575 2.375,1.925 5.625,1.925 z"
       style="font-style:normal;font-variant:normal;font-weight:500;font-stretch:normal;font-size:25px;font-family:'Brandon Text';-inkscape-font-specification:'Brandon Text Medium'"
       id="path3442" />
    <path
       d="m 58.790353,22.281322 c 3.675,0 5.9,-2.6 5.9,-5.175 0,-3.4 -2.85,-4.625 -5.05,-5.7 -1.75,-0.85 -2.725,-1.4999995 -2.725,-2.3249995 0,-0.725 0.475,-1.375 1.525,-1.375 1.325,0 2.8,0.95 3.375,1.35 0.5,0.3 0.925,0.1 1.1,-0.175 l 1.275,-1.925 c 0.1,-0.175 0.15,-0.625 -0.15,-0.8 -0.75,-0.55 -2.75,-1.875 -5.35,-1.875 -3.85,0 -5.775,2.5 -5.775,4.975 0,2.9999995 2.425,4.3499995 4.85,5.5249995 1.65,0.8 2.575,1.475 2.575,2.525 0,0.875 -0.725,1.5 -1.725,1.5 -1.575,0 -2.85,-0.9 -3.55,-1.375 -0.25,-0.175 -0.65,-0.175 -0.85,0.15 l -1.15,2.025 c -0.175,0.325 -0.1,0.55 0.1,0.75 0.575,0.575 2.375,1.925 5.625,1.925 z"
       style="font-style:normal;font-variant:normal;font-weight:500;font-stretch:normal;font-size:25px;font-family:'Brandon Text';-inkscape-font-specification:'Brandon Text Medium'"
       id="path3444" />
    <path
       d="m 67.633713,21.556322 c 0,0.25 0.225,0.475 0.475,0.475 l 3,0 c 0.25,0 0.475,-0.225 0.475,-0.475 l 0,-16.5499995 c 0,-0.25 -0.225,-0.475 -0.475,-0.475 l -3,0 c -0.25,0 -0.475,0.225 -0.475,0.475 l 0,16.5499995 z"
       style="font-style:normal;font-variant:normal;font-weight:500;font-stretch:normal;font-size:25px;font-family:'Brandon Text';-inkscape-font-specification:'Brandon Text Medium'"
       id="path3446" />
    <path
       d="m 81.970041,13.931322 -0.15,0 -4.125,-9.1249995 c -0.05,-0.125 -0.225,-0.275 -0.425,-0.275 l -3.325,0 c -0.375,0 -0.575,0.325 -0.425,0.65 l 7.8,16.8249995 c 0.075,0.15 0.225,0.275 0.425,0.275 l 0.25,0 c 0.2,0 0.35,-0.125 0.425,-0.275 l 7.85,-16.8249995 c 0.15,-0.325 -0.05,-0.65 -0.425,-0.65 l -3.325,0 c -0.2,0 -0.375,0.15 -0.425,0.275 l -4.125,9.1249995 z"
       style="font-style:normal;font-variant:normal;font-weight:500;font-stretch:normal;font-size:25px;font-family:'Brandon Text';-inkscape-font-specification:'Brandon Text Medium'"
       id="path3448" />
    <path
       d="m 92.243088,21.556322 c 0,0.25 0.2,0.475 0.475,0.475 l 10.350002,0 c 0.275,0 0.475,-0.225 0.475,-0.475 l 0,-2.725 c 0,-0.25 -0.2,-0.475 -0.475,-0.475 l -6.925002,0 0,-3.375 5.700002,0 c 0.25,0 0.475,-0.2 0.475,-0.475 l 0,-2.725 c 0,-0.25 -0.225,-0.475 -0.475,-0.475 l -5.700002,0 0,-3.0999995 6.925002,0 c 0.275,0 0.475,-0.225 0.475,-0.475 l 0,-2.725 c 0,-0.25 -0.2,-0.475 -0.475,-0.475 l -10.350002,0 c -0.275,0 -0.475,0.225 -0.475,0.475 l 0,16.5499995 z"
       style="font-style:normal;font-variant:normal;font-weight:500;font-stretch:normal;font-size:25px;font-family:'Brandon Text';-inkscape-font-specification:'Brandon Text Medium'"
       id="path3450" />
  </g>
  <g
     style="font-style:normal;font-weight:normal;font-size:22.5px;line-height:125%;font-family:sans-serif;letter-spacing:0px;word-spacing:0px;fill:#000000;fill-opacity:1;stroke:none;stroke-width:1px;stroke-linecap:butt;stroke-linejoin:miter;stroke-opacity:1"
     id="text3420">
    <path
       d="m 2.7187082,44.013556 c 0,0.14 0.12,0.26 0.26,0.26 l 0.36,0 c 0.2,0 0.32,-0.12 0.32,-0.26 l 0,-4.72 3.64,0 c 2.46,0 4.4999998,-1.92 4.4999998,-4.54 0,-2.58 -2.0399998,-4.48 -4.5199998,-4.48 l -4.3,0 c -0.14,0 -0.26,0.12 -0.26,0.26 l 0,13.48 z m 0.94,-5.64 0,-7.16 3.56,0 c 1.98,0 3.6399998,1.4 3.6399998,3.52 0,2.16 -1.6599998,3.64 -3.6199998,3.64 l -3.58,0 z"
       style="font-style:normal;font-variant:normal;font-weight:300;font-stretch:normal;font-size:20px;font-family:'Brandon Text';-inkscape-font-specification:'Brandon Text Light'"
       id="path3453" />
    <path
       d="m 14.554646,44.013556 c 0,0.14 0.12,0.26 0.26,0.26 l 7.06,0 c 0.14,0 0.26,-0.08 0.26,-0.22 l 0,-0.36 c 0,-0.14 -0.02,-0.26 -0.26,-0.26 l -6.38,0 0,-12.9 c 0,-0.14 -0.12,-0.26 -0.24,-0.26 l -0.44,0 c -0.14,0 -0.26,0.12 -0.26,0.26 l 0,13.48 z"
       style="font-style:normal;font-variant:normal;font-weight:300;font-stretch:normal;font-size:20px;font-family:'Brandon Text';-inkscape-font-specification:'Brandon Text Light'"
       id="path3455" />
    <path
       d="m 22.637458,44.273556 0.56,0 c 0.14,0 0.24,-0.1 0.28,-0.18 l 1.6,-3.68 7.64,0 1.62,3.68 c 0.04,0.08 0.14,0.18 0.28,0.18 l 0.52,0 c 0.22,0 0.22,-0.12 0.18,-0.24 l -6.1,-13.82 c -0.06,-0.12 -0.16,-0.14 -0.26,-0.14 l -0.06,0 c -0.1,0 -0.2,0.06 -0.24,0.14 l -6.16,13.82 c -0.06,0.16 0,0.24 0.14,0.24 z m 2.8,-4.64 3.48,-7.96 0.04,0 3.42,7.96 -6.94,0 z"
       style="font-style:normal;font-variant:normal;font-weight:300;font-stretch:normal;font-size:20px;font-family:'Brandon Text';-inkscape-font-specification:'Brandon Text Light'"
       id="path3457" />
    <path
       d="m 39.283083,44.013556 c 0,0.14 0.12,0.26 0.26,0.26 l 0.36,0 c 0.2,0 0.32,-0.12 0.32,-0.26 l 0,-12.88 3.84,0 c 0.16,0 0.26,-0.12 0.26,-0.26 l 0,-0.34 c 0,-0.14 -0.1,-0.26 -0.26,-0.26 l -8.6,0 c -0.14,0 -0.26,0.1 -0.26,0.26 l 0,0.3 c 0,0.18 0.06,0.3 0.26,0.3 l 3.82,0 0,12.88 z"
       style="font-style:normal;font-variant:normal;font-weight:300;font-stretch:normal;font-size:20px;font-family:'Brandon Text';-inkscape-font-specification:'Brandon Text Light'"
       id="path3459" />
    <path
       d="m 46.820271,44.013556 c 0,0.14 0.12,0.26 0.26,0.26 l 0.36,0 c 0.2,0 0.32,-0.12 0.32,-0.26 l 0,-5.96 6.36,0 c 0.3,0 0.26,-0.36 0.26,-0.58 0,-0.14 -0.12,-0.26 -0.26,-0.26 l -6.36,0 0,-6.08 7.34,0 c 0.14,0 0.26,-0.12 0.26,-0.26 l 0,-0.34 c 0,-0.14 -0.12,-0.26 -0.26,-0.26 l -8.02,0 c -0.14,0 -0.26,0.12 -0.26,0.26 l 0,13.48 z"
       style="font-style:normal;font-variant:normal;font-weight:300;font-stretch:normal;font-size:20px;font-family:'Brandon Text';-inkscape-font-specification:'Brandon Text Light'"
       id="path3461" />
    <path
       d="m 56.896833,37.293556 c 0,4.02 3.2,7.18 7.2,7.18 4.02,0 7.22,-3.16 7.22,-7.18 0,-4 -3.2,-7.22 -7.22,-7.22 -4,0 -7.2,3.22 -7.2,7.22 z m 0.88,0 c 0,-3.5 2.82,-6.34 6.32,-6.34 3.5,0 6.34,2.84 6.34,6.34 0,3.5 -2.84,6.3 -6.34,6.3 -3.5,0 -6.32,-2.8 -6.32,-6.3 z"
       style="font-style:normal;font-variant:normal;font-weight:300;font-stretch:normal;font-size:20px;font-family:'Brandon Text';-inkscape-font-specification:'Brandon Text Light'"
       id="path3463" />
    <path
       d="m 74.476521,44.013556 c 0,0.14 0.12,0.26 0.26,0.26 l 0.36,0 c 0.2,0 0.32,-0.12 0.32,-0.26 l 0,-5.14 3.68,0 c 0.26,0 0.48,0 0.74,-0.02 l 2.86,5.18 c 0.1,0.18 0.18,0.24 0.42,0.24 l 0.52,0 c 0.2,0 0.24,-0.2 0.14,-0.36 l -2.92,-5.18 c 1.9,-0.54 3.3,-2.22 3.3,-4.24 0,-2.44 -2.02,-4.22 -4.46,-4.22 l -4.96,0 c -0.16,0 -0.26,0.12 -0.26,0.26 l 0,13.48 z m 0.96,-6.06 0,-6.76 4.2,0 c 1.94,0 3.56,1.4 3.56,3.3 0,1.98 -1.62,3.46 -3.54,3.46 l -4.22,0 z"
       style="font-style:normal;font-variant:normal;font-weight:300;font-stretch:normal;font-size:20px;font-family:'Brandon Text';-inkscape-font-specification:'Brandon Text Light'"
       id="path3465" />
    <path
       d="m 86.327146,44.013556 c -0.04,0.2 0.04,0.26 0.22,0.26 l 0.48,0 c 0.12,0 0.22,-0.1 0.24,-0.22 l 2.26,-11.72 c 0.02,0 0.04,0 0.04,0 l 4.04,11.98 c 0.04,0.14 0.16,0.16 0.26,0.16 l 0.08,0 c 0.12,0 0.24,-0.04 0.28,-0.16 l 4.04,-11.98 c 0,0 0.02,0 0.04,0 l 2.260004,11.72 c 0.02,0.12 0.12,0.22 0.24,0.22 l 0.48,0 c 0.18,0 0.26,-0.06 0.22,-0.26 l -2.840004,-13.8 c -0.02,-0.08 -0.1,-0.14 -0.18,-0.14 l -0.22,0 c -0.1,0 -0.16,0.04 -0.2,0.14 l -4.14,12.28 c -0.02,0 -0.02,0 -0.04,0 l -4.12,-12.28 c -0.04,-0.1 -0.1,-0.14 -0.2,-0.14 l -0.22,0 c -0.08,0 -0.16,0.06 -0.18,0.14 l -2.84,13.8 z"
       style="font-style:normal;font-variant:normal;font-weight:300;font-stretch:normal;font-size:20px;font-family:'Brandon Text';-inkscape-font-specification:'Brandon Text Light'"
       id="path3467" />
  </g>
  <rect
     id="rect3424"
     width="97.935692"
     height="0.34935442"
     x="3.4935441"
     y="25.87422" />
</svg>
