<?xml version="1.0" standalone="no"?>
<!DOCTYPE svg PUBLIC "-//W3C//DTD SVG 1.1//EN" "http://www.w3.org/Graphics/SVG/1.1/DTD/svg11.dtd" >
<svg xmlns="http://www.w3.org/2000/svg" xmlns:xlink="http://www.w3.org/1999/xlink" version="1.1">
<metadata>
Created by FontForge 20150501 at Sat Sep 24 17:16:26 2016
 By Ian C
</metadata>
<defs>
<font id="tm-icons" horiz-adv-x="512" >
  <font-face 
    font-family="tm-icons"
    font-weight="400"
    font-stretch="normal"
    units-per-em="512"
    panose-1="0 0 0 0 0 0 0 0 0 0"
    ascent="480"
    descent="-32"
    bbox="-32 -33 513 481"
    underline-thickness="0"
    underline-position="0"
    unicode-range="U+0001-FFFD"
  />
<missing-glyph horiz-adv-x="0" 
 />
    <glyph glyph-name=".notdef" unicode="&#xfffd;" horiz-adv-x="0" 
 />
    <glyph glyph-name="glyph1" horiz-adv-x="0" 
d="M0 0v0v0v0z" />
    <glyph glyph-name="glyph1" horiz-adv-x="0" 
d="M0 0v0v0v0z" />
    <glyph glyph-name="nonmarkingreturn" horiz-adv-x="170" 
 />
    <glyph glyph-name="uni0001" horiz-adv-x="0" 
d="M0 0v0v0v0z" />
    <glyph glyph-name="space" unicode=" " horiz-adv-x="256" 
d="M0 0v0v0v0z" />
    <glyph glyph-name="uniE600" unicode="&#xe600;" 
d="M512 224l-128 96v-64h-96v96h64l-96 128l-96 -128h64v-96h-96v64l-128 -96l128 -96v64h96v-96h-64l96 -128l96 128h-64v96h96v-64z" />
    <glyph glyph-name="uniE601" unicode="&#xe601;" 
d="M367 77q-7 1 -8 14.5l-1 13.5l14.5 18t19.5 46q6 0 10.5 6t6.5 15t0.5 17.5t-7.5 14.5q0 5 1.5 23.5t-3.5 38.5q-6 20 -23.5 35.5t-56.5 15.5t-56.5 -15.5t-23.5 -35.5q-5 -20 -3.5 -38.5t1.5 -23.5q-6 -6 -7.5 -14.5t0.5 -17.5t6.5 -15t10.5 -6q5 -28 19.5 -46l14.5 -18
l-1 -13.5t-8 -14.5q-12 -1 -36 -11t-48 -25t-42.5 -34t-18.5 -39h384q0 20 -18.5 39t-42.5 34t-48 25t-36 11v0zM172 69q8 5 17 9.5t18 9.5q10 4 19 7.5t17 6.5q-3 5 -6 9.5t-6 10.5t-5.5 12t-4.5 13q-6 5 -10.5 11.5t-7.5 14.5q-2 4 -3 8.5t-2 8.5v9.5v8.5q1 6 2.5 11.5
t4.5 11.5q-1 8 -1 20.5t2 26.5q3 14 8.5 28t16.5 27q5 5 10 9l10 8l12 6t12 5q-1 12 -5 24.5t-14 22.5q-9 10 -24.5 16.5t-39.5 6.5q-39 0 -56.5 -15.5t-23.5 -35.5q-5 -20 -3.5 -38.5t1.5 -23.5q-6 -6 -7.5 -14.5t0.5 -17.5t6.5 -15t10.5 -6q5 -28 19.5 -46l14.5 -18
l-1 -13.5t-8 -14.5q-12 -1 -36 -11t-48 -25t-42.5 -34t-18.5 -39h165q2 1 3.5 2t3.5 3v0z" />
    <glyph glyph-name="uniE602" unicode="&#xe602;" 
d="M319 115q-9 2 -11 19.5l-2 17.5l20 24.5t26 61.5q8 0 14 8.5t9 20.5q2 11 0 23t-10 19q0 7 2.5 32t-5.5 52q-7 26 -31 47.5t-75 21.5t-75 -21.5t-31 -47.5q-8 -27 -5.5 -52t2.5 -32q-8 -7 -10 -19t0 -23q3 -12 9 -20.5t14 -8.5q6 -37 26 -61.5l20 -24.5l-2 -17.5
t-11 -19.5q-16 -2 -48 -15t-64 -33t-56.5 -45.5t-24.5 -53.5h512q0 28 -24.5 53.5t-56.5 45.5t-64 33t-48 15v0z" />
    <glyph glyph-name="uniE603" unicode="&#xe603;" 
d="M512 383q-7 -3 -14.5 -6t-14.5 -5q-8 -2 -15.5 -3.5t-15.5 -2.5q8 5 15 11.5t13 13.5t10.5 15.5t7.5 17.5l-16 -8t-16 -7t-17 -5.5t-18 -4.5q-7 8 -15.5 14t-18.5 10t-20.5 6.5t-22.5 2.5q-21 0 -40.5 -8t-33.5 -23q-14 -14 -22.5 -33t-8.5 -41q0 -6 1 -12l2 -12
q-33 2 -63.5 10.5t-57.5 22.5q-28 14 -52 33.5t-43 43.5q-4 -6 -6.5 -12.5t-4.5 -12.5q-2 -7 -3 -14t-1 -14q0 -14 3.5 -26.5t9.5 -23.5q6 -12 15 -21t19 -16q-6 0 -12.5 1t-12.5 2q-6 2 -11.5 4.5t-10.5 5.5v-1v-1q0 -19 6 -36t18 -31q11 -13 26.5 -22.5t33.5 -13.5l-14 -2
t-14 -1q-5 0 -10 0.5t-10 1.5q5 -16 14.5 -29.5t22.5 -22.5q13 -10 28.5 -15.5t33.5 -5.5q-14 -11 -29 -19.5t-32 -13.5q-16 -6 -33.5 -9t-36.5 -3h-12.5t-12.5 1q17 -11 36 -20t40 -15q20 -6 41.5 -9t43.5 -3q72 0 128 27t94 70t57.5 96.5t19.5 105.5v6.5v6.5q7 6 14.5 12
t13.5 13q7 7 13 14.5t11 15.5v0z" />
    <glyph glyph-name="uniE604" unicode="&#xe604;" 
d="M256 384l256 -256h-512z" />
    <glyph glyph-name="uniE605" unicode="&#xe605;" 
d="M160 -32v512l256 -256z" />
    <glyph glyph-name="uniE606" unicode="&#xe606;" 
d="M96 224l256 256v-512z" />
    <glyph glyph-name="uniE607" unicode="&#xe607;" 
d="M0 320h512l-256 -256z" />
    <glyph glyph-name="uniE608" unicode="&#xe608;" 
d="M352 288h64v-272q0 -10 -4 -18.5t-10 -15.5q-7 -6 -15.5 -10t-18.5 -4h-224q-10 0 -18.5 4t-15.5 10q-6 7 -10 15.5t-4 18.5v272h64v-256h64v256h64v-256h64v256v0zM64 384h384v-64h-384v64v0zM192 448h128v-32h-128v32v0z" />
    <glyph glyph-name="uniE609" unicode="&#xe609;" 
d="M194 16l-185 185l46 46l135 -135l265 324l50 -40z" />
    <glyph glyph-name="uniE60A" unicode="&#xe60a;" 
d="M480 256h-448v-64h448v64z" />
    <glyph glyph-name="uniE60B" unicode="&#xe60b;" 
d="M512 281l-177 26l-79 160l-79 -160l-177 -26l128 -124l-30 -176l158 83l158 -83l-30 176l128 124v0z" />
    <glyph glyph-name="uniE60C" unicode="&#xe60c;" 
d="M448 480v-87q-18 20 -39 36t-46 28q-24 11 -51 17t-56 6q-53 0 -99.5 -20t-81.5 -55t-55 -81.5t-20 -99.5t20 -99.5t55 -81.5t81.5 -55t99.5 -20t99.5 20t81.5 55t55 81.5t20 99.5h-64q0 -19 -3.5 -37.5t-11.5 -36.5q-7 -17 -17.5 -32.5t-23.5 -29.5q-14 -13 -29.5 -23.5
t-32.5 -18.5q-18 -7 -36.5 -10.5t-37.5 -3.5t-37.5 3.5t-36.5 11.5q-17 7 -32.5 17.5t-29.5 23.5q-13 14 -23.5 29.5t-17.5 32.5q-8 18 -11.5 36.5t-3.5 37.5t3.5 37.5t11.5 36.5q7 17 17.5 32.5t23.5 29.5q14 13 29.5 23.5t32.5 17.5q18 8 36.5 11.5t37.5 3.5t37.5 -3.5
t36.5 -11.5q17 -7 32.5 -17.5t29.5 -23.5q2 -2 3.5 -4t3.5 -4h-79v-64h192v192h-64v0z" />
    <glyph glyph-name="uniE60D" unicode="&#xe60d;" 
d="M128 96h64v96q0 10 2 19t5 18q4 8 9 16t12 15t15 12t16 9q9 3 18 5t19 2h101l-73 -73l45 -46l151 151l-151 151l-45 -46l73 -73h-101q-33 0 -62 -12.5t-51 -34.5t-34.5 -51t-12.5 -62v-96v0zM448 32h-384v256h45q5 10 10 18.5t12 16.5q6 8 13.5 15.5t15.5 13.5h-160v-384
h512v288l-64 -64v-160v0z" />
    <glyph glyph-name="uniE60E" unicode="&#xe60e;" 
d="M128 160q0 192 112 224l112 32v64l160 -128l-160 -128v64l-88 -16t-136 -112v0zM384 186v-90h-320v192h56q6 30 23 47l17 17h-160v-320h448v204l-64 -50v0z" />
    <glyph glyph-name="uniE60F" unicode="&#xe60f;" 
d="M9 0l23 -23q5 -4 10.5 -6.5t12.5 -2.5q6 0 12 2.5t10 6.5l118 118q12 -7 25 -13t26 -10q14 -4 28.5 -6t29.5 -2q43 0 81 16.5t66 44.5t44.5 66t16.5 81t-16.5 81t-44.5 66t-66 44.5t-81 16.5t-81 -16.5t-66 -44.5t-44.5 -66t-16.5 -81q0 -15 2 -29.5t6 -28.5
q4 -13 10 -26t13 -25l-118 -118q-4 -4 -6.5 -10t-2.5 -12q0 -7 2.5 -12.5t6.5 -10.5v0zM304 128q-14 0 -28 3t-27 8t-25 13t-22 18t-18 22t-13 25t-8 27t-3 28t3 28t8 27t13 25t18 22t22 18t25 13t27 8t28 3t28 -3t27 -8t25 -13t22 -18t18 -22t13 -25t8 -27t3 -28t-3 -28
t-8 -27t-13 -25t-18 -22t-22 -18t-25 -13t-27 -8t-28 -3v0z" />
    <glyph glyph-name="uniE610" unicode="&#xe610;" 
d="M503 45l-118 118q7 12 13 25t10 26q4 14 6 28.5t2 29.5q0 43 -16.5 81t-44.5 66t-66 44.5t-81 16.5t-81 -16.5t-66 -44.5t-44.5 -66t-16.5 -81t16.5 -81t44.5 -66t66 -44.5t81 -16.5q15 0 29.5 2t28.5 6q13 4 26 10t25 13l118 -118q4 -4 10 -6.5t12 -2.5q7 0 12.5 2.5
t10.5 6.5l23 23q4 5 6.5 10.5t2.5 12.5q0 6 -2.5 12t-6.5 10v0zM106 170q-10 10 -18 22t-13 25t-8 27t-3 28t3 28t8 27t13 25t18 22t22 18t25 13t27 8t28 3t28 -3t27 -8t25 -13t22 -18t18 -22t13 -25t8 -27t3 -28t-3 -28t-8 -27t-13 -25t-18 -22t-22 -18t-25 -13t-27 -8
t-28 -3t-28 3t-27 8t-25 13t-22 18v0z" />
    <glyph glyph-name="uniE611" unicode="&#xe611;" 
d="M256 320l160 -160h-320z" />
    <glyph glyph-name="uniE612" unicode="&#xe612;" 
d="M352 224l-160 -160v320z" />
    <glyph glyph-name="uniE613" unicode="&#xe613;" 
d="M160 224l160 160v-320z" />
    <glyph glyph-name="uniE614" unicode="&#xe614;" 
d="M256 128l-160 160h320z" />
    <glyph glyph-name="uniE615" unicode="&#xe615;" 
d="M208 52l-152 121l41 50l103 -83l211 233l47 -42z" />
    <glyph glyph-name="uniE616" unicode="&#xe616;" 
d="M448 256h-384v-64h384v64z" />
    <glyph glyph-name="uniE617" unicode="&#xe617;" 
d="M439 361l-45 45l-138 -137l-136 137l-47 -45l139 -138l-139 -136l47 -47l136 139l138 -139l45 47l-137 136z" />
    <glyph glyph-name="uniE618" unicode="&#xe618;" 
d="M256 352l183 -183l-46 -45l-137 137l-137 -137l-46 45z" />
    <glyph glyph-name="uniE619" unicode="&#xe619;" 
d="M201 41l-45 45l137 138l-137 136l45 47l183 -184z" />
    <glyph glyph-name="uniE61A" unicode="&#xe61a;" 
d="M128 224l183 183l45 -46l-137 -137l137 -137l-45 -46z" />
    <glyph glyph-name="uniE61B" unicode="&#xe61b;" 
d="M256 96l-183 183l46 45l137 -137l137 137l46 -45z" />
    <glyph glyph-name="uniE61C" unicode="&#xe61c;" 
d="M448 256h-160v160h-64v-160h-160v-64h160v-160h64v160h160v64z" />
    <glyph glyph-name="uniE61D" unicode="&#xe61d;" 
d="M192 352h-79q2 2 3.5 4t3.5 4q14 13 29.5 23.5t32.5 17.5q18 8 36.5 11.5t37.5 3.5t37.5 -3.5t36.5 -11.5q17 -7 32.5 -17.5t29.5 -23.5q13 -14 23.5 -29.5t17.5 -32.5q8 -18 11.5 -36.5t3.5 -37.5h64q0 53 -20 99.5t-55 81.5t-81.5 55t-99.5 20q-29 0 -56 -6t-51 -17
q-25 -12 -46 -28t-39 -36v87h-64v-192h192v64v0zM320 96h79q-2 -2 -3.5 -4t-3.5 -4q-14 -13 -29.5 -23.5t-32.5 -17.5q-18 -8 -36.5 -11.5t-37.5 -3.5t-37.5 3.5t-36.5 11.5q-17 7 -32.5 17.5t-29.5 23.5q-13 14 -23.5 29.5t-17.5 32.5q-8 18 -11.5 36.5t-3.5 37.5h-64
q0 -53 20 -99.5t55 -81.5t81.5 -55t99.5 -20q29 0 56 6t51 17q25 12 46 28t39 36v-87h64v192h-192v-64v0z" />
    <glyph glyph-name="uniE61E" unicode="&#xe61e;" 
d="M352 160q-12 -12 -19 -23.5t-13 -20.5t-13 -14.5t-19 -5.5t-24 5.5t-24 14.5t-24 20.5t-24 23.5t-23.5 24t-20.5 24t-14.5 24t-5.5 24t5.5 19t14.5 13t20.5 13t23.5 19t3 33.5t-27 42.5t-39 36.5t-33 15.5q-24 0 -60 -48l-36 -48q0 -24 11 -58t30 -71q18 -36 41 -70
t46 -57t57 -46t70 -41q37 -19 71 -30t58 -11l48 36t48 60q0 12 -15.5 33t-36.5 39t-42.5 27t-33.5 -3v0z" />
    <glyph glyph-name="uniE61F" unicode="&#xe61f;" 
d="M432 480q17 0 31.5 -6.5t25.5 -16.5q10 -11 16.5 -25.5t6.5 -31.5q0 -7 -1 -13.5t-3 -12.5t-5 -11.5t-7 -10.5l-32 -32l-112 112l32 32q5 4 10.5 7t11.5 5t12.5 3t13.5 1v0zM32 112l-32 -144l144 32l296 296l-112 112l-296 -296v0zM358 298l-224 -224l-28 28l224 224
l28 -28v0z" />
    <glyph glyph-name="uniE620" unicode="&#xe620;" 
d="M442 432l-404 -177q-7 -3 -8.5 -8t-1.5 -10q2 -5 5.5 -9t10.5 -4h211l1 -212q-1 -6 3.5 -10t8.5 -5q6 -1 10.5 1t8.5 8l176 404q3 6 1.5 10t-4.5 8q-4 3 -8 4.5t-10 -1.5v1z" />
    <glyph glyph-name="uniE621" unicode="&#xe621;" 
d="M368 480h-224q-10 0 -18.5 -4t-15.5 -10q-6 -7 -10 -15.5t-4 -18.5v-416q0 -10 4 -18.5t10 -15.5q7 -6 15.5 -10t18.5 -4h224q10 0 18.5 4t15.5 10q6 7 10 15.5t4 18.5v416q0 10 -4 18.5t-10 15.5q-7 6 -15.5 10t-18.5 4v0zM192 456h128v-16h-128v16v0zM256 0
q-7 0 -12.5 2.5t-10.5 6.5q-4 5 -6.5 10.5t-2.5 12.5t2.5 12.5t6.5 10.5q5 4 10.5 6.5t12.5 2.5t12.5 -2.5t10.5 -6.5q4 -5 6.5 -10.5t2.5 -12.5t-2.5 -12.5t-6.5 -10.5q-5 -4 -10.5 -6.5t-12.5 -2.5v0zM384 96h-256v320h256v-320v0z" />
    <glyph glyph-name="uniE622" unicode="&#xe622;" 
d="M32 192h448v64h-448v-64v0zM32 32h448v64h-448v-64v0zM32 416v-64h448v64h-448v0z" />
    <glyph glyph-name="uniE623" unicode="&#xe623;" 
d="M0 384l160 64v-384l-160 -64v384zM352 384v-384l-160 53v384zM512 448v-384l-128 -51v384z" />
    <glyph glyph-name="uniE624" unicode="&#xe624;" 
d="M256 480q-40 0 -75 -15t-61 -41t-41 -61t-15 -75q0 -144 96 -232l96 -88l96 88t96 232q0 40 -15 75t-41 61t-61 41t-75 15v0zM256 224q-20 0 -37.5 7.5t-30.5 20.5t-20.5 30.5t-7.5 37.5t7.5 37.5t20.5 30.5t30.5 20.5t37.5 7.5t37.5 -7.5t30.5 -20.5t20.5 -30.5
t7.5 -37.5t-7.5 -37.5t-20.5 -30.5t-30.5 -20.5t-37.5 -7.5v0z" />
    <glyph glyph-name="uniE625" unicode="&#xe625;" 
d="M32 192h96v96h-96v-96v0zM32 32h96v96h-96v-96v0zM32 352h96v96h-96v-96v0zM160 32h320v96h-320v-96v0zM160 192h320v96h-320v-96v0zM160 448v-96h320v96h-320v0z" />
    <glyph glyph-name="uniE626" unicode="&#xe626;" 
d="M426 480h-340q-18 0 -33.5 -7t-27.5 -18q-11 -12 -18 -27.5t-7 -33.5v-340q0 -18 7 -33.5t18 -27.5q12 -11 27.5 -18t33.5 -7h340q18 0 33.5 7t27.5 18q11 12 18 27.5t7 33.5v340q0 18 -7 33.5t-18 27.5q-12 11 -27.5 18t-33.5 7v0zM192 64h-64v224h64v-224v0zM160 320
q-7 0 -12.5 2.5t-10.5 6.5q-4 5 -6.5 10.5t-2.5 12.5t2.5 12.5t6.5 10.5q5 4 10.5 6.5t12.5 2.5t12.5 -2.5t10.5 -6.5q4 -5 6.5 -10.5t2.5 -12.5t-2.5 -12.5t-6.5 -10.5q-5 -4 -10.5 -6.5t-12.5 -2.5v0zM416 64h-64v128q0 7 -2.5 12.5t-6.5 10.5q-5 4 -10.5 6.5t-12.5 2.5
t-12.5 -2.5t-10.5 -6.5q-4 -5 -6.5 -10.5t-2.5 -12.5v-128h-64v224h64v-40q5 7 11 14t13 13q8 6 16 9.5t16 3.5q15 0 28 -6.5t23 -16.5q10 -11 15.5 -25.5t5.5 -31.5v-144v0z" />
    <glyph glyph-name="uniE627" unicode="&#xe627;" 
d="M448 384h-384v-320h384v320v0zM512 448v0v-448h-512v448h512v0zM416 96h-320v64l96 160l131 -160l93 64l-1 -32zM320 304q-1 -10 3.5 -18.5t9.5 -15.5q8 -6 16 -10t19 -4q9 0 18 4t15 10q7 7 10.5 15.5t4.5 18.5q-1 10 -4.5 18.5t-10.5 15.5q-6 6 -15 10t-18 4
q-11 0 -19 -4t-16 -10q-5 -7 -9.5 -15.5t-3.5 -18.5v0z" />
    <glyph glyph-name="uniE628" unicode="&#xe628;" 
d="M512 185l-256 199l-256 -199v82l256 198l256 -198v-82zM448 192v-191l-128 -1v129l-128 -1v-127l-128 -1v193l192 143z" />
    <glyph glyph-name="uniE629" unicode="&#xe629;" 
d="M256 480q-29 0 -56 -6t-51 -17q-25 -12 -46 -28t-39 -36v87h-64v-192h192v64h-79q2 2 3.5 4t3.5 4q14 13 29.5 23.5t32.5 17.5q18 8 36.5 11.5t37.5 3.5t37.5 -3.5t36.5 -11.5q17 -7 32.5 -17.5t29.5 -23.5q13 -14 23.5 -29.5t17.5 -32.5q8 -18 11.5 -36.5t3.5 -37.5
t-3.5 -37.5t-11.5 -36.5q-7 -17 -17.5 -32.5t-23.5 -29.5q-14 -13 -29.5 -23.5t-32.5 -17.5q-18 -8 -36.5 -11.5t-37.5 -3.5t-37.5 3.5t-36.5 10.5q-17 8 -32.5 18.5t-29.5 23.5q-13 14 -23.5 29.5t-17.5 32.5q-8 18 -11.5 36.5t-3.5 37.5h-64q0 -53 20 -99.5t55 -81.5
t81.5 -55t99.5 -20t99.5 20t81.5 55t55 81.5t20 99.5t-20 99.5t-55 81.5t-81.5 55t-99.5 20v0zM224 352v-141l105 -106l46 46l-87 86v115h-64v0z" />
    <glyph glyph-name="uniE62A" unicode="&#xe62a;" 
d="M32 448h128v-128h-128v128v0zM192 448h128v-128h-128v128v0zM352 448h128v-128h-128v128v0zM32 288h128v-128h-128v128v0zM192 288h128v-128h-128v128v0zM352 288h128v-128h-128v128v0zM32 128h128v-128h-128v128v0zM192 128h128v-128h-128v128v0zM352 128h128v-128h-128
v128v0z" />
    <glyph glyph-name="uniE62B" unicode="&#xe62b;" 
d="M280 448h-54.5h-79.5q-23 0 -44 -8t-37 -21q-16 -14 -26 -31.5t-10 -37.5t7.5 -38t20.5 -31t32 -21t42 -8q3 0 6 0.5t6 0.5q-3 -6 -4.5 -12.5t-1.5 -12.5t1 -11t4 -10q2 -4 5.5 -8t7.5 -8h-11.5h-11.5q-28 0 -52 -8.5t-42 -21.5q-18 -14 -28 -31.5t-10 -35.5t11 -32.5
t30 -24.5q18 -11 43 -16.5t53 -5.5q32 0 56.5 8.5t41.5 22.5q17 13 25.5 30.5t8.5 35.5q0 14 -2.5 26t-7.5 23q-6 10 -15 19.5t-22 18.5q-5 3 -11 8.5t-11 10.5q-6 6 -9.5 12t-3.5 11t1 9.5t3 8.5q3 4 8 9t13 11q9 6 16 14t12 17t7.5 18.5t2.5 20.5q0 13 -2.5 25t-8.5 22
q-5 11 -13 18.5t-19 11.5h43l30 22v0zM233 120q1 -3 1 -6.5v-7.5q0 -14 -5 -27t-16 -22q-12 -9 -30.5 -14.5t-45.5 -5.5q-19 0 -35.5 5.5t-28.5 15.5q-11 10 -18 23t-7 27q0 15 8 27.5t22 22.5q13 9 31 14.5t37 5.5q4 0 8.5 -0.5t8.5 -0.5l8 -2l8 -2q11 -8 19.5 -14
t15.5 -11q7 -6 12 -12.5t7 -15.5v0zM150 266q-13 0 -25 7t-22 18q-10 12 -17 27t-9 32t1 31.5t10 25.5t17.5 16.5t23.5 5.5t25 -7t22 -18t17 -26t9 -32t-1 -31.5t-10 -25.5t-17.5 -17t-23.5 -6v0zM416 352v96h-32v-96h-96v-32h96v-96h32v96h96v32h-96z" />
    <glyph glyph-name="uniE62C" unicode="&#xe62c;" 
d="M240 448q-50 0 -93.5 -19t-76.5 -51q-32 -33 -51 -76.5t-19 -93.5t19 -93.5t51 -76.5q33 -32 76.5 -51t93.5 -19t93.5 19t76.5 51q32 33 51 76.5t19 93.5t-19 93.5t-51 76.5q-33 32 -76.5 51t-93.5 19v0zM376 128q1 8 2.5 15.5t2.5 15.5t1.5 16.5t1.5 16.5h63
q0 -8 -1.5 -16.5t-3.5 -16.5t-4.5 -15.5t-5.5 -15.5h-56v0zM104 288q-1 -8 -2.5 -15.5t-2.5 -15.5t-1.5 -16.5t-1.5 -16.5h-63q0 8 1.5 16.5t3.5 16.5t4.5 15.5t5.5 15.5h56v0zM343 288q2 -8 3.5 -15.5t2.5 -15.5t1.5 -16.5t1.5 -16.5h-96v64h87v0zM256 320v94
q5 -2 10.5 -4.5t11.5 -6.5q5 -4 9.5 -8t9.5 -10q5 -5 9 -11t8 -13q3 -4 5.5 -9t5.5 -10q2 -6 4.5 -11t4.5 -11h-78v0zM166 361q4 7 8 13t9 11q5 6 9.5 10t9.5 8q6 4 11.5 6.5t10.5 4.5v-94h-78q2 6 4.5 11t4.5 11q3 5 5.5 10t5.5 9v0zM224 288v-64h-96q1 8 1.5 16.5
t1.5 16.5t2.5 15.5t3.5 15.5h87v0zM48 128q-3 8 -5.5 15.5t-4.5 15.5t-3.5 16.5t-1.5 16.5h63q1 -8 1.5 -16.5t1.5 -16.5t2.5 -15.5t2.5 -15.5h-56v0zM128 192h96v-64h-87q-2 8 -3.5 15.5t-2.5 15.5t-1.5 16.5t-1.5 16.5v0zM224 96v-94q-5 2 -10.5 4.5t-11.5 6.5
q-5 4 -9.5 8t-9.5 10q-5 5 -9 11t-8 13q-3 4 -5.5 9t-5.5 10q-2 6 -4.5 11t-4.5 11h78v0zM314 55q-4 -7 -8 -13t-9 -11q-5 -6 -9.5 -10t-9.5 -8q-6 -4 -11.5 -6.5t-10.5 -4.5v94h78q-2 -6 -4.5 -11t-4.5 -11q-3 -5 -5.5 -10t-5.5 -9v0zM256 128v64h96q-1 -8 -1.5 -16.5
t-1.5 -16.5t-2.5 -15.5t-3.5 -15.5h-87v0zM384 224q-1 8 -1.5 16.5t-1.5 16.5t-2.5 15.5t-2.5 15.5h56q3 -8 5.5 -15.5t4.5 -15.5t3.5 -16.5t1.5 -16.5h-63v0zM415 320h-48q-3 11 -7 21.5t-9 19.5q-5 10 -10 18.5t-11 16.5q8 -4 15.5 -8.5t14.5 -9.5t14 -11t13 -12l8 -8
t7 -9q4 -4 7 -8.5t6 -9.5v0zM93 355q6 6 13 12t14 11t14.5 9.5t15.5 8.5q-6 -8 -11 -16.5t-10 -18.5q-5 -9 -9 -19.5t-7 -21.5h-48q3 5 6 9.5t7 8.5q3 5 7 9l8 8v0zM65 96h48q3 -11 7 -21.5t9 -19.5q5 -10 10 -18.5t11 -16.5q-8 4 -15.5 8.5t-14.5 9.5t-14 11t-13 12l-8 8
t-7 9q-4 4 -7 8.5t-6 9.5v0zM387 61q-6 -6 -13 -12t-14 -11t-14.5 -9.5t-15.5 -8.5q6 8 11 16.5t10 18.5q5 9 9 19.5t7 21.5h48q-3 -5 -6 -9.5t-7 -8.5q-3 -5 -7 -9l-8 -8v0z" />
    <glyph glyph-name="uniE62D" unicode="&#xe62d;" 
d="M0 202q0 -9 0.5 -17t1.5 -16q0 -8 1.5 -15.5t3.5 -14.5q1 -7 3 -13.5t4 -12.5q3 -7 5.5 -12.5t5.5 -10.5q2 -5 5.5 -10t7.5 -10q3 -4 7 -8.5t9 -8.5q4 -4 9 -7.5t9 -6.5l10 -6t10 -5q6 -3 11.5 -5.5t11.5 -4.5t12 -3.5t13 -3.5q6 -1 13 -2.5t14 -2.5t13.5 -2t13.5 -1
q7 -1 14.5 -1.5t14.5 -0.5q8 -1 16 -1h16h17t15 1q8 0 15.5 0.5t14.5 1.5q7 0 13.5 1t13.5 2t14 2.5t13 2.5q7 2 13.5 3.5t12.5 3.5t11.5 4.5t10.5 5.5q5 2 10 5l10 6t9.5 6.5t9.5 7.5q4 4 8 8.5t8 8.5q4 5 7 10l6 10t5.5 10.5t5.5 12.5q2 6 4 12.5t3 13.5q2 7 3.5 14.5
t1.5 15.5q1 8 1.5 16t0.5 17q0 15 -2.5 29.5t-7.5 28.5q-6 13 -13.5 25.5t-18.5 23.5q2 3 3 6.5t2 7.5t1.5 9.5t1.5 12.5t0.5 15t-1.5 17q-1 5 -2 9.5t-2 9.5q-2 5 -3.5 9.5t-3.5 9.5l-4 1h-5t-8 -1q-4 0 -9.5 -1t-11.5 -3t-14 -5t-17 -8q-5 -2 -10 -5l-10 -6t-10 -6.5
t-11 -6.5q-9 2 -20 4t-23 3q-13 2 -27 2.5t-30 0.5t-30 -0.5t-27 -2.5q-12 -1 -23 -3t-20 -4q-6 3 -11 6.5t-10 6.5l-10 6t-10 5q-10 5 -17.5 8t-13.5 5t-11 3t-10 1q-5 1 -8.5 1h-4.5t-2 -0.5t-2 -0.5q-2 -5 -3.5 -9.5t-3.5 -9.5q-1 -5 -2 -9.5t-2 -9.5q-1 -9 -1.5 -17
t0.5 -15t1.5 -12.5t1.5 -9.5t2 -7.5t3 -6.5q-11 -11 -18.5 -23.5t-13.5 -25.5q-5 -14 -7.5 -28.5t-2.5 -29.5v0zM63 139q0 9 2 17.5t6 17.5q4 8 10 16t15 15q5 5 10.5 8t11.5 6q7 2 14.5 3.5t15.5 1.5h16h15q8 -1 17 -1.5t20 -1.5q6 0 11 -0.5t10 -0.5h9h8h8.5h9.5t10 0.5
t10 0.5q11 1 20.5 1.5t16.5 1.5h16h16t15.5 -1.5t13.5 -3.5q7 -3 12.5 -6t10.5 -8q8 -7 14.5 -15t10.5 -16q4 -9 6 -17.5t2 -17.5q0 -5 -0.5 -10.5t-0.5 -9.5q-1 -5 -2 -9.5t-2 -8.5q-3 -9 -6.5 -16t-7.5 -12q-4 -6 -10 -10.5t-14 -8.5q-7 -4 -14.5 -7t-14.5 -5
q-7 -3 -16 -4.5t-20 -2.5q-5 -1 -10.5 -1.5t-10.5 -0.5t-9.5 -0.5t-8.5 -0.5h-10h-10h-12h-13h-12.5h-11.5h-10.5h-9.5q-4 0 -8.5 0.5t-9.5 0.5t-10.5 0.5t-10.5 1.5q-11 1 -20.5 2.5t-16.5 4.5q-7 2 -14 5t-15 7q-7 4 -13 8.5t-10 10.5q-4 5 -7.5 12t-6.5 16q-1 4 -2 8.5
t-2 9.5q0 4 -0.5 9.5t-0.5 10.5v0zM320 144q0 -10 2.5 -18.5t6.5 -15.5q5 -6 10.5 -10t12.5 -4t12.5 4t10.5 10q4 7 6.5 15.5t2.5 18.5t-2.5 18.5t-6.5 15.5q-5 6 -10.5 10t-12.5 4t-12.5 -4t-10.5 -10q-4 -7 -6.5 -15.5t-2.5 -18.5v0zM128 144q0 -10 2.5 -18.5t6.5 -15.5
q5 -6 10.5 -10t12.5 -4t12.5 4t10.5 10q4 7 6.5 15.5t2.5 18.5t-2.5 18.5t-6.5 15.5q-5 6 -10.5 10t-12.5 4t-12.5 -4t-10.5 -10q-4 -7 -6.5 -15.5t-2.5 -18.5v0z" />
    <glyph glyph-name="uniE62E" unicode="&#xe62e;" 
d="M0 208q0 -23 9 -43.5t24 -35.5t35.5 -24t43.5 -9t43.5 9t35.5 24t24 35.5t9 43.5t-9 43.5t-24 35.5t-35.5 24t-43.5 9t-43.5 -9t-35.5 -24t-24 -35.5t-9 -43.5v0zM288 208q0 -23 9 -43.5t24 -35.5t35.5 -24t43.5 -9t43.5 9t35.5 24t24 35.5t9 43.5t-9 43.5t-24 35.5
t-35.5 24t-43.5 9t-43.5 -9t-35.5 -24t-24 -35.5t-9 -43.5v0z" />
    <glyph glyph-name="uniE62F" unicode="&#xe62f;" 
d="M32 320v-64q13 0 25.5 -1.5t25.5 -3.5q12 -3 24.5 -6.5t24.5 -8.5q11 -5 22 -11t21 -13q10 -6 19.5 -14t18.5 -17t17 -18.5t14 -19.5q7 -10 13 -21t11 -22q5 -12 8.5 -24.5t6.5 -24.5q2 -13 3.5 -25.5t1.5 -25.5h64q0 66 -25 124.5t-69 101.5q-43 44 -101.5 69t-124.5 25
v0zM128 160q-13 0 -25 -5t-20 -14q-9 -8 -14 -20t-5 -25t5 -25t14 -20q8 -9 20 -14t25 -5t25 5t20 14q9 8 14 20t5 25t-5 25t-14 20q-8 9 -20 14t-25 5v0zM32 448v-64q19 0 38.5 -2t37.5 -6q19 -3 37.5 -9t35.5 -13q18 -7 34 -16t31 -19q16 -11 30 -22.5t28 -24.5
q13 -14 24.5 -28t22.5 -30q10 -15 19 -31t16 -34q7 -17 13 -35.5t9 -37.5q4 -18 6 -37.5t2 -38.5h64q0 93 -35 174.5t-96 142.5t-142.5 96t-174.5 35v0z" />
    <glyph glyph-name="uniE630" unicode="&#xe630;" 
d="M427 480h-341q-18 0 -33 -6.5t-28 -18.5q-11 -12 -18 -27.5t-6 -32.5l-1 -342q1 -17 7 -32.5t19 -27.5q11 -12 27 -18.5t32 -6.5h343q16 0 32 6.5t27 18.5q13 12 19 27.5t7 32.5l-1 342q1 17 -6 32.5t-18 27.5q-13 12 -28 18.5t-33 6.5v0zM436 224h-84l1 -224h-97l1 224
h-47l1 73h45l1 48q-1 24 5 43t17 33q14 13 33 20t49 7h87l1 -79h-73q-7 0 -12 -2t-7 -6q-3 -4 -3.5 -10t-1.5 -14l1 -40h95l-12 -73v0z" />
    <glyph glyph-name="uniE631" unicode="&#xe631;" 
d="M96 384h256v-128h64v192h-384v-384h192v64h-128v256v0zM448 224v-147l-201 202l-46 -46l202 -201h-147v-64h256v256h-64v0z" />
    <glyph glyph-name="uniE632" unicode="&#xe632;" 
d="M0 288v-256h512v256l-256 -160l-256 160v0zM0 416v-64l256 -160l256 160v64h-512v0z" />
    <glyph glyph-name="uniE633" unicode="&#xe633;" 
d="M439 247l-45 45l-106 -105l1 293h-65l1 -293l-106 105l-45 -45l182 -183l184 183h-1zM448 96l1 -64h-385l1 64h-65l1 -128h511l1 128h-65v0z" />
    <glyph glyph-name="uniE634" unicode="&#xe634;" 
d="M256 480q-53 0 -99.5 -20t-81.5 -55t-55 -81.5t-20 -99.5t20 -99.5t55 -81.5t81.5 -55t99.5 -20t99.5 20t81.5 55t55 81.5t20 99.5t-20 99.5t-55 81.5t-81.5 55t-99.5 20v0zM407 119l-46 -46l-105 106l-105 -106l-46 46l106 105l-106 105l46 46l105 -106l105 106l46 -46
l-106 -105l106 -105v0z" />
    <glyph glyph-name="uniE635" unicode="&#xe635;" 
d="M0 160h512v64h-512v-64v0zM0 480v-64h512v64h-512v0zM0 32h384v64h-384v-64v0zM0 288h512v64h-512v-64v0z" />
    <glyph glyph-name="uniE636" unicode="&#xe636;" 
d="M512 192v64l-72 24q-2 5 -3.5 9t-3.5 9q-1 4 -3 8l-4 8l34 68l-46 46l-68 -34l-8 4t-8 3q-5 2 -9 3.5t-9 3.5l-24 72h-64l-24 -72q-5 -2 -9 -3.5t-9 -3.5q-4 -1 -8 -3l-8 -4l-68 34l-46 -46l34 -68l-4 -8t-3 -8q-2 -5 -3.5 -9t-3.5 -9l-72 -24v-64l72 -24q2 -5 3.5 -9
t3.5 -9q1 -4 3 -8l4 -8l-34 -68l46 -46l68 34l8 -4t8 -3q5 -2 9 -3.5t9 -3.5l24 -72h64l24 72q5 2 9 3.5t9 3.5q4 1 8 3l8 4l68 -34l46 46l-34 68l4 8t3 8q2 5 3.5 9t3.5 9l72 24v0zM256 128q-20 0 -37.5 7.5t-30.5 20.5t-20.5 30.5t-7.5 37.5t7.5 37.5t20.5 30.5t30.5 20.5
t37.5 7.5t37.5 -7.5t30.5 -20.5t20.5 -30.5t7.5 -37.5t-7.5 -37.5t-20.5 -30.5t-30.5 -20.5t-37.5 -7.5v0z" />
    <glyph glyph-name="uniE637" unicode="&#xe637;" 
d="M329 105l-105 105v142l64 -1v-114l87 -87zM256 480q-53 -1 -99.5 -20.5t-81.5 -55.5q-35 -34 -55 -81t-20 -99q0 -54 20 -100t55 -82q35 -34 81.5 -54.5t99.5 -19.5q53 -1 99.5 19.5t81.5 54.5q35 36 55 82t20 100q0 52 -20 99t-55 81q-35 36 -81.5 55.5t-99.5 20.5v0z
M256 31q-40 1 -75 15.5t-61 41.5q-26 25 -41 60.5t-15 74.5q0 41 15 75.5t41 61.5q26 25 61 40.5t75 14.5q40 1 75 -14.5t61 -40.5q26 -27 41 -61.5t15 -75.5q0 -39 -15 -74.5t-41 -60.5q-26 -27 -61 -41.5t-75 -15.5v0z" />
    <glyph glyph-name="uniE638" unicode="&#xe638;" 
d="M224 192h64v160h-64v-160v0zM288 128q0 7 -2.5 12.5t-6.5 10.5q-5 4 -10.5 6.5t-12.5 2.5t-12.5 -2.5t-10.5 -6.5q-4 -5 -6.5 -10.5t-2.5 -12.5t2.5 -12.5t6.5 -10.5q5 -4 10.5 -6.5t12.5 -2.5t12.5 2.5t10.5 6.5q4 5 6.5 10.5t2.5 12.5v0zM512 224q0 53 -20 99.5
t-55 81.5t-81.5 55t-99.5 20t-99.5 -20t-81.5 -55t-55 -81.5t-20 -99.5t20 -99.5t55 -81.5t81.5 -55t99.5 -20t99.5 20t81.5 55t55 81.5t20 99.5v0zM448 224q0 -19 -3.5 -37.5t-11.5 -36.5q-7 -17 -17.5 -32.5t-23.5 -29.5q-14 -13 -29.5 -23.5t-32.5 -17.5
q-18 -8 -36.5 -11.5t-37.5 -3.5t-37.5 3.5t-36.5 11.5q-17 7 -32.5 17.5t-29.5 23.5q-13 14 -23.5 29.5t-17.5 32.5q-8 18 -11.5 36.5t-3.5 37.5t3.5 37.5t11.5 36.5q7 17 17.5 32.5t23.5 29.5q14 13 29.5 23.5t32.5 17.5q18 8 36.5 11.5t37.5 3.5t37.5 -3.5t36.5 -11.5
q17 -7 32.5 -17.5t29.5 -23.5q13 -14 23.5 -29.5t17.5 -32.5q8 -18 11.5 -36.5t3.5 -37.5v0z" />
    <glyph glyph-name="uniE639" unicode="&#xe639;" 
d="M256 480q-53 0 -99.5 -20t-81.5 -55t-55 -81.5t-20 -99.5t20 -99.5t55 -81.5t81.5 -55t99.5 -20t99.5 20t81.5 55t55 81.5t20 99.5t-20 99.5t-55 81.5t-81.5 55t-99.5 20v0zM392 88q-14 -13 -29.5 -23.5t-32.5 -17.5q-18 -8 -36.5 -11.5t-37.5 -3.5t-37.5 3.5t-36.5 11.5
q-17 7 -32.5 17.5t-29.5 23.5q-13 14 -23.5 29.5t-17.5 32.5q-8 18 -11.5 36.5t-3.5 37.5t3.5 37.5t11.5 36.5q7 17 17.5 32.5t23.5 29.5q14 13 29.5 23.5t32.5 17.5q18 8 36.5 11.5t37.5 3.5t37.5 -3.5t36.5 -11.5q17 -7 32.5 -17.5t29.5 -23.5q13 -14 23.5 -29.5
t17.5 -32.5q8 -18 11.5 -36.5t3.5 -37.5t-3.5 -37.5t-11.5 -36.5q-7 -17 -17.5 -32.5t-23.5 -29.5v0zM345 323l-120 -134l-57 55l-45 -45l104 -103l166 184l-48 43v0z" />
    <glyph glyph-name="uniE63A" unicode="&#xe63a;" 
d="M256 144q-7 0 -12.5 -2.5t-10.5 -6.5q-4 -5 -6.5 -10.5t-2.5 -12.5t2.5 -12.5t6.5 -10.5q5 -4 10.5 -6.5t12.5 -2.5t12.5 2.5t10.5 6.5q4 5 6.5 10.5t2.5 12.5t-2.5 12.5t-6.5 10.5q-5 4 -10.5 6.5t-12.5 2.5v0zM256 480q-53 0 -99.5 -20t-81.5 -55t-55 -81.5t-20 -99.5
t20 -99.5t55 -81.5t81.5 -55t99.5 -20t99.5 20t81.5 55t55 81.5t20 99.5t-20 99.5t-55 81.5t-81.5 55t-99.5 20v0zM392 88q-14 -13 -29.5 -23.5t-32.5 -17.5q-18 -8 -36.5 -11.5t-37.5 -3.5t-37.5 3.5t-36.5 11.5q-17 7 -32.5 17.5t-29.5 23.5q-13 14 -23.5 29.5t-17.5 32.5
q-8 18 -11.5 36.5t-3.5 37.5t3.5 37.5t11.5 36.5q7 17 17.5 32.5t23.5 29.5q14 13 29.5 23.5t32.5 17.5q18 8 36.5 11.5t37.5 3.5t37.5 -3.5t36.5 -11.5q17 -7 32.5 -17.5t29.5 -23.5q13 -14 23.5 -29.5t17.5 -32.5q8 -18 11.5 -36.5t3.5 -37.5t-3.5 -37.5t-11.5 -36.5
q-7 -17 -17.5 -32.5t-23.5 -29.5v0zM254 360q-27 0 -44.5 -9t-27.5 -23t-13.5 -30.5t-4.5 -30.5h50q1 6 6.5 25.5t32.5 19.5q8 0 15 -2.5t13 -6.5q5 -5 8 -12t3 -16t-4 -16t-10 -13q-6 -7 -13.5 -13t-14.5 -13t-11 -14t-6 -14t-3 -13.5t-1 -12.5v-6h28h24v6q0 15 10 25.5
t22 22.5q11 12 21 27t10 38q0 15 -5.5 29.5t-16.5 25.5q-11 12 -28 19t-40 7v0z" />
    <glyph glyph-name="uniE63B" unicode="&#xe63b;" 
d="M192 112l192 112l-192 112v-224v0zM256 480q-53 0 -99.5 -20t-81.5 -55t-55 -81.5t-20 -99.5t20 -99.5t55 -81.5t81.5 -55t99.5 -20t99.5 20t81.5 55t55 81.5t20 99.5t-20 99.5t-55 81.5t-81.5 55t-99.5 20v0zM392 88q-14 -13 -29.5 -23.5t-32.5 -17.5
q-18 -8 -36.5 -11.5t-37.5 -3.5t-37.5 3.5t-36.5 11.5q-17 7 -32.5 17.5t-29.5 23.5q-13 14 -23.5 29.5t-17.5 32.5q-8 18 -11.5 36.5t-3.5 37.5t3.5 37.5t11.5 36.5q7 17 17.5 32.5t23.5 29.5q14 13 29.5 23.5t32.5 17.5q18 8 36.5 11.5t37.5 3.5t37.5 -3.5t36.5 -11.5
q17 -7 32.5 -17.5t29.5 -23.5q13 -14 23.5 -29.5t17.5 -32.5q8 -18 11.5 -36.5t3.5 -37.5t-3.5 -37.5t-11.5 -36.5q-7 -17 -17.5 -32.5t-23.5 -29.5v0z" />
    <glyph glyph-name="uniE63C" unicode="&#xe63c;" 
d="M224 96h64v160h-64v-160v0zM256 352q-7 0 -12.5 -2.5t-10.5 -6.5q-4 -5 -6.5 -10.5t-2.5 -12.5t2.5 -12.5t6.5 -10.5q5 -4 10.5 -6.5t12.5 -2.5t12.5 2.5t10.5 6.5q4 5 6.5 10.5t2.5 12.5t-2.5 12.5t-6.5 10.5q-5 4 -10.5 6.5t-12.5 2.5v0zM256 480q-53 0 -99.5 -20
t-81.5 -55t-55 -81.5t-20 -99.5t20 -99.5t55 -81.5t81.5 -55t99.5 -20t99.5 20t81.5 55t55 81.5t20 99.5t-20 99.5t-55 81.5t-81.5 55t-99.5 20v0zM392 88q-14 -13 -29.5 -23.5t-32.5 -17.5q-18 -8 -36.5 -11.5t-37.5 -3.5t-37.5 3.5t-36.5 11.5q-17 7 -32.5 17.5
t-29.5 23.5q-13 14 -23.5 29.5t-17.5 32.5q-8 18 -11.5 36.5t-3.5 37.5t3.5 37.5t11.5 36.5q7 17 17.5 32.5t23.5 29.5q14 13 29.5 23.5t32.5 17.5q18 8 36.5 11.5t37.5 3.5t37.5 -3.5t36.5 -11.5q17 -7 32.5 -17.5t29.5 -23.5q13 -14 23.5 -29.5t17.5 -32.5
q8 -18 11.5 -36.5t3.5 -37.5t-3.5 -37.5t-11.5 -36.5q-7 -17 -17.5 -32.5t-23.5 -29.5v0z" />
    <glyph glyph-name="uniE63D" unicode="&#xe63d;" 
d="M329 343l-73 -73l-73 73l-46 -45l74 -74l-74 -72l46 -47l73 75l73 -75l46 47l-74 72l74 74l-46 45v0zM256 481q-53 -1 -99.5 -20.5t-81.5 -55.5q-35 -34 -55 -81t-20 -99q0 -54 20 -100t55 -82q35 -34 81.5 -54.5t99.5 -19.5q53 -1 99.5 19.5t81.5 54.5q35 36 55 82
t20 100q0 52 -20 99t-55 81q-35 36 -81.5 55.5t-99.5 20.5v0zM392 88q-14 -12 -29.5 -23t-32.5 -17q-18 -9 -36.5 -12t-37.5 -4q-19 1 -37.5 4t-36.5 12q-17 6 -32.5 17t-29.5 23q-13 15 -23.5 30t-17.5 33q-8 17 -11.5 36t-3.5 37q0 20 3.5 38t11.5 37q7 16 17.5 32
t23.5 29q14 14 29.5 24t32.5 18q18 7 36.5 11t37.5 3q19 1 37.5 -3t36.5 -11q17 -8 32.5 -18t29.5 -24q13 -13 23.5 -29t17.5 -32q8 -19 11.5 -37t3.5 -38q0 -18 -3.5 -37t-11.5 -36q-7 -18 -17.5 -33t-23.5 -30v0z" />
    <glyph glyph-name="uniE63E" unicode="&#xe63e;" 
d="M471 393l-45 45l-170 -169l-168 169l-47 -45l171 -170l-171 -168l47 -47l168 171l170 -171l45 47l-169 168z" />
    <glyph glyph-name="uniE63F" unicode="&#xe63f;" 
d="M256 384l-247 -247l46 -45l201 201l201 -201l46 44z" />
    <glyph glyph-name="uniE640" unicode="&#xe640;" 
d="M288 -32v389l137 -137l46 45l-215 215l-215 -215l46 -45l137 137v-389h64z" />
    <glyph glyph-name="uniE641" unicode="&#xe641;" 
d="M0 192h389l-137 -137l45 -46l215 215l-215 215l-45 -46l137 -137h-389v-64z" />
    <glyph glyph-name="uniE642" unicode="&#xe642;" 
d="M512 256h-389l137 137l-45 46l-215 -215l215 -215l45 46l-137 137h389v64z" />
    <glyph glyph-name="uniE643" unicode="&#xe643;" 
d="M224 480v-389l-137 137l-46 -45l215 -215l215 215l-46 45l-137 -137v389h-64z" />
    <glyph glyph-name="uniE644" unicode="&#xe644;" 
d="M201 471l-45 -45l201 -202l-201 -200l44 -47l248 248z" />
    <glyph glyph-name="uniE645" unicode="&#xe645;" 
d="M384 448v-448h64v448h-64v0zM60 425l201 -201l-201 -201l44 -46l248 247l-248 247l-44 -46v0z" />
    <glyph glyph-name="uniE646" unicode="&#xe646;" 
d="M388 425l-45 45l-247 -246l247 -248l45 47l-202 200z" />
    <glyph glyph-name="uniE647" unicode="&#xe647;" 
d="M452 425l-45 45l-247 -246l247 -248l45 47l-202 200l202 202v0zM63 -1l65 1l-1 447l-63 1l-1 -449v0z" />
    <glyph glyph-name="uniE648" unicode="&#xe648;" 
d="M458 356l-202 -202l-202 202l-44 -47l246 -245l246 245z" />
    <glyph glyph-name="uniE649" unicode="&#xe649;" 
d="M427 480h-342q-18 0 -33 -6.5t-27 -18.5t-18.5 -27t-6.5 -33v-342q0 -18 6.5 -33t18.5 -27t27 -18.5t33 -6.5h342q18 0 33 6.5t27 18.5t18.5 27t6.5 33v342q0 18 -6.5 33t-18.5 27t-27 18.5t-33 6.5v0zM164 256h184q3 -8 4 -16t1 -16q0 -20 -8 -38t-21 -31t-31 -20.5
t-38 -7.5t-38 7.5t-31 20.5t-20.5 31t-7.5 38q0 8 1 16t4 16h1zM447 256v-192q0 -7 -2.5 -12.5t-6.5 -10.5q-5 -4 -10.5 -6.5t-12.5 -2.5h-320q-7 0 -12.5 2.5t-10.5 6.5q-4 5 -6.5 10.5t-2.5 12.5v192h50q-2 -8 -2.5 -16t-0.5 -16q0 -30 11 -56.5t31 -46.5t46.5 -31
t56.5 -11t56.5 11t46.5 31t31 46.5t11 56.5q0 8 -1 16t-3 16h50h1zM446 368q0 -7 -4.5 -11.5t-11.5 -4.5h-32q-7 0 -11.5 4.5t-4.5 11.5v32q0 7 4.5 11.5t11.5 4.5h32q7 0 11.5 -4.5t4.5 -11.5v-32v0z" />
    <glyph glyph-name="uniE64A" unicode="&#xe64a;" 
d="M64 32h320v288h-320v-288v0zM128 256h192v-160h-192v160v0zM160 416v-64h256v-224h64v288h-320v0z" />
    <glyph glyph-name="uniE64B" unicode="&#xe64b;" 
d="M192 416h64h64v-32h64v32q0 13 -5 24.5t-14 20.5q-8 8 -20 13.5t-25 4.5l-128 1q-13 -1 -24.5 -5.5t-20.5 -14.5q-9 -7 -14 -19.5t-5 -24.5v-33l64 1v31v1zM0 32q0 -8 2.5 -13t6.5 -11q5 -3 10.5 -6t12.5 -2l448 -1q7 1 12.5 3t10.5 7q4 4 6.5 10t2.5 12v193l-512 -1
v-191v0zM224 191l64 1v-33q0 -6 -2.5 -12t-6.5 -10q-5 -5 -10.5 -7t-12.5 -3q-7 1 -12.5 3t-10.5 7q-4 4 -6.5 10t-2.5 12v33v-1zM480 351l-448 1q-7 -1 -12.5 -3t-10.5 -7q-4 -4 -6.5 -10t-2.5 -12v-65l512 1v63q0 8 -2.5 13t-6.5 11q-5 3 -10.5 6t-12.5 2v0z" />
    <glyph glyph-name="uniE64C" unicode="&#xe64c;" 
d="M256 448q53 0 99.5 -16.5t81.5 -44.5t55 -66t20 -81t-20 -81t-55 -66t-81.5 -44.5t-99.5 -16.5h-10t-10 1q-5 0 -10 0.5t-10 0.5q-21 -20 -43 -33.5t-46 -19.5q-23 -8 -47 -10l-48 -4v15q13 5 24.5 14t20.5 19q9 12 14 23.5t5 25.5q0 3 -0.5 7t-0.5 6q-22 16 -39.5 33
t-29.5 39q-13 20 -19.5 43.5t-6.5 46.5q0 44 20 81.5t55 66.5q35 27 81.5 44t99.5 16v1z" />
    <glyph glyph-name="uniE64D" unicode="&#xe64d;" 
d="M480 256h-192v192h-64v-192h-192v-64h192v-192h64v192h192v64z" />
    <glyph glyph-name="uniE64E" unicode="&#xe64e;" 
d="M416 320q0 9 -3.5 17.5t-9.5 15.5q-6 6 -14 10t-17 5q6 7 8.5 15.5t2.5 17.5t-3.5 17t-10.5 15t-15 10.5t-17 3.5t-17.5 -2.5t-15.5 -8.5q-1 9 -5 17t-10 14q-7 6 -15.5 9.5t-17.5 3.5t-17.5 -3.5t-15.5 -9.5q-6 -6 -10 -14t-5 -17q-7 6 -15.5 8.5t-17.5 2.5t-17 -3.5
t-15 -10.5t-10.5 -15t-3.5 -17t2.5 -17.5t8.5 -15.5q-9 -1 -17 -5t-14 -10q-6 -7 -9.5 -15.5t-3.5 -17.5t3.5 -17.5t9.5 -15.5q6 -6 14 -10t17 -5q-6 -7 -8.5 -15.5t-2.5 -17.5t3.5 -17t10.5 -15q5 -5 11 -8.5t12 -4.5q7 -1 13.5 -1t12.5 2v-227l64 64l64 -64v227
q6 -2 12.5 -2t13.5 1q6 1 12 4.5t11 8.5q7 7 10.5 15t3.5 17t-2.5 17.5t-8.5 15.5q9 1 17 5t14 10q6 7 9.5 15.5t3.5 17.5v0zM256 224q-20 0 -37.5 7.5t-30.5 20.5t-20.5 30.5t-7.5 37.5t7.5 37.5t20.5 30.5t30.5 20.5t37.5 7.5t37.5 -7.5t30.5 -20.5t20.5 -30.5t7.5 -37.5
t-7.5 -37.5t-20.5 -30.5t-30.5 -20.5t-37.5 -7.5v0z" />
    <glyph glyph-name="uniE64F" unicode="&#xe64f;" 
d="M411 236q36 0 62.5 -26t26.5 -63v-71q0 -37 -26.5 -63t-62.5 -26h-310q-36 0 -62.5 26t-26.5 63v71q0 37 26.5 63t62.5 26h310zM166 181v24h-85v-24h29v-143h28v143h28zM248 38v123h-25v-94q-3 -4 -7.5 -6.5t-7.5 -2.5t-4.5 2t-1.5 6v95h-25v-103q0 -11 4.5 -16.5
t12.5 -5.5q7 0 14.5 4t14.5 11v-13h25zM337 63v69q0 15 -6 23t-18 8q-6 0 -11.5 -3t-10.5 -9v54h-25v-167h25v9q5 -5 11 -8q5 -3 12 -3q11 0 17 7t6 20zM422 96v32q0 17 -9 26.5t-26 9.5q-16 0 -26.5 -10t-10.5 -26v-56q0 -17 9.5 -27.5t26.5 -10.5q18 0 27 9.5t9 28.5v7
h-25v-6q0 -11 -2.5 -14t-8.5 -3t-8.5 3.5t-2.5 13.5v23h47zM386 143q6 0 8.5 -3.5t2.5 -11.5v-12h-22v12q0 8 3 11q2 4 8 4zM301 143q5 0 8 -3t3 -10v-63q0 -6 -2.5 -9t-6.5 -3q-3 0 -6 2q-3 1 -6 4v77q3 3 5.5 4t4.5 1zM142 279v73l-37 111h31l20 -73h2l20 73h31l-36 -108
v-76h-31zM252 276q-18 0 -29 10t-11 27v71q0 16 11 25t30 9q17 0 28 -9.5t11 -25.5v-70q0 -17 -10.5 -27t-29.5 -10zM240 385v-74q0 -6 3 -9t8.5 -3t9 3t3.5 9v74q0 4 -3.5 7t-8.5 3t-8.5 -3t-3.5 -7zM334 277q-9 0 -14 6t-5 18v114h28v-104q0 -5 1.5 -7t5.5 -2q3 0 7.5 2.5
t8.5 7.5v103h28v-136h-28v15q-7 -8 -15.5 -12.5t-16.5 -4.5z" />
    <glyph glyph-name="uniE650" unicode="&#xe650;" 
d="M437 430q75 -2 75 -84v-11q-4 -70 -105 -191q-104 -126 -176 -126q-45 0 -76 77l-21 71l-20 70q-23 77 -50 77q-5 0 -40 -22l-24 28l38 32l37 31q50 40 76 43h7q53 0 66 -76l12 -72q5 -27 8 -38q18 -72 38 -73q16 0 49 48q32 48 34 72q1 4 1 8q0 32 -35 32q-18 0 -38 -7
q36 111 139 111h5z" />
    <glyph glyph-name="uniE651" unicode="&#xe651;" 
d="M254 452q-50 0 -83 -27q-29 -23 -41 -53q-8 -23 -6 -66q-6 -42 1 -42v-1q-10 -2 -21 0q-3 1 -5 1q-2 1 -6 2q-3 1 -5 2q-8 1 -16 -4v0q-5 -3 -9 -13q-1 -1 0 -1q2 -4 5 -9q1 -2 4 -3q2 -2 2 -1q-1 0 0 0q6 -4 33 -15v0q13 -6 14 -14q2 -9 -5 -25q-18 -36 -50 -58
q-10 -7 -37 -17v0q-10 -4 -13 -8q-1 0 -1 -1q-2 -6 2 -10q3 -3 6 -5q16 -8 34 -12q21 -4 21 -5l1 -2l1 -4q1 -2 3 -10q1 -7 2 -11q2 -3 5 -4q4 -1 8 1h1q32 7 53 2q9 -3 50 -28v0q31 -15 40 -15v0q5 -1 34 1v0q12 0 27 9q5 3 23 15q9 6 29 16q5 -6 21 3q26 47 15 30
q-27 -41 30 -32q3 0 5 2q1 1 2 4v1v1q6 18 9 21t9 3q15 1 35 10q12 5 15 10v0q3 11 -3 14l-1 1v0q-3 1 -5 2l-6 2t-4 1q-36 12 -63 47q-15 19 -22 38q-4 11 1 16v0q9 10 22 14q20 8 29 16q3 3 4 5q3 5 1 10q-3 5 -11 10q-14 7 -17 2v0q-8 -3 -16 -5q-14 -3 -18 0q-1 1 0 4
v19q1 12 1 15q1 36 -2 53q-8 46 -49 75q-29 19 -61 22q-11 1 -22 1z" />
    <glyph glyph-name="uniE652" unicode="&#xe652;" horiz-adv-x="384" 
d="M123 65l-120 130q-2 2 -2 5.5t2 6.5l10 12q3 3 8 3q1 0 4 -1l103 -46l231 203q7 6 13 6q4 0 7 -2t5 -5t2 -7q0 -5 -6 -10l-247 -294q-2 -3 -5 -3t-5 2z" />
    <glyph glyph-name="uniE653" unicode="&#xe653;" horiz-adv-x="384" 
d="M224 43q-2 0 -2 1q-2 2 -1 4q20 24 20 68q0 19 -6 39t-14 35.5t-16.5 28.5t-14.5 20l-6 7q-3 -3 -7 -8t-13.5 -19t-17 -28.5t-13.5 -35t-6 -39.5q0 -15 3 -29v0q0 -2 -2 -3l-1 -1q-2 0 -3 1q-42 45 -42 100q0 12 1.5 24.5t5.5 28.5t10 32t17 34.5t25.5 35.5t35.5 35
t47 35h1h2q1 -1 1 -2q3 -19 9.5 -39t12 -32t15.5 -34q9 -20 14 -31.5t11.5 -29.5t9 -35.5t2.5 -36.5q0 -20 -5.5 -38.5t-13 -31.5t-18.5 -24.5t-20.5 -18.5t-18.5 -13h-2z" />
    <glyph glyph-name="uniE654" unicode="&#xe654;" horiz-adv-x="384" 
d="M0 318v48q0 7 4.5 11.5t11.5 4.5h352q7 0 11.5 -4.5t4.5 -11.5v-48h-384zM16 94q-7 0 -11.5 4.5t-4.5 11.5v176h384v-176q0 -7 -4.5 -11.5t-11.5 -4.5h-352zM32 126h128v64h-128v-64z" />
    <glyph glyph-name="uniE655" unicode="&#xe655;" horiz-adv-x="384" 
d="M129 30l-3 3q-2 3 -2 6t1 4q1 3 13.5 40t25.5 72l12 35h-97q-7 0 -10 6q-1 2 -1 5q0 4 3 8q24 28 67 76.5t73 82t32 35.5q3 5 8 5h3l2 -3q3 -2 3 -6l-0.5 -1l-0.5 -1q-1 -4 -25 -72.5t-25 -70.5h96q8 0 10 -6q1 -1 1 -4t-3 -7l-42 -49.5t-85 -100t-45 -52.5q-4 -5 -8 -5
h-3z" />
    <glyph glyph-name="uniE656" unicode="&#xe656;" horiz-adv-x="384" 
d="M112 30q-52 0 -82 29.5t-30 82.5v128q0 52 30 82t82 30h128q53 0 82.5 -29.5t29.5 -82.5v-128q0 -53 -29.5 -82.5t-82.5 -29.5h-128zM96 94h160q13 0 22.5 9.5t9.5 22.5v160q0 13 -9.5 22.5t-22.5 9.5h-160q-13 0 -22.5 -9.5t-9.5 -22.5v-160q0 -13 9.5 -22.5t22.5 -9.5z
M141 136q-3 -3 -7 -3q-6 0 -6 9v128q0 9 6 9q4 0 7 -3l81 -60q5 -4 5 -10t-5 -10z" />
    <glyph glyph-name="uniE657" unicode="&#xe657;" horiz-adv-x="384" 
d="M208 58q-20 27 -47 55.5t-48 49t-40.5 41t-30 40t-10.5 37.5q0 26 14 49t37 36t48 13q10 0 20.5 -2.5t20.5 -8t19 -14t17 -20.5q11 15 24 25.5t26.5 15t28.5 4.5q25 0 47 -13t36 -36t14 -49q0 -18 -11 -37.5t-30 -40t-40.5 -41t-48 -49t-46.5 -55.5zM208 133q1 0 4.5 2
t8.5 6t10 9l11 11l11 11t11.5 11t9.5 10q2 1 5 4q13 13 19.5 20t16.5 17.5t15 17.5t8.5 15t3.5 14q0 25 -17 42.5t-38 17.5q-9 0 -18 -4.5t-15.5 -11t-13.5 -14t-12 -14t-11 -10.5t-10 -4q-5 0 -11.5 6t-13 14.5t-14 17t-17.5 14.5t-20 6q-22 0 -40 -17.5t-18 -42.5
q0 -8 4.5 -16.5t15 -20.5t18.5 -20.5t24 -23.5l7 -7l14.5 -14.5l16.5 -16.5t14.5 -14t13 -11t7.5 -4z" />
    <glyph glyph-name="uniE658" unicode="&#xe658;" horiz-adv-x="384" 
d="M192 406q37 0 71 -14.5t59 -39.5t39.5 -59t14.5 -71t-14.5 -71t-39.5 -59t-59 -39.5t-71 -14.5t-71 14.5t-59 39.5t-39.5 59t-14.5 71t14.5 71t39.5 59t59 39.5t71 14.5zM293 98q9 9 14.5 15t11 16t6.5 20q-4 2 -11.5 2.5t-11.5 2.5q-5 2 -16 4.5t-16 6.5q-4 -1 -14 -1
q-27 0 -39 -7q-9 -7 -15 -7q-4 0 -6 3q-1 2 -1 6v5.5v4.5q-2 4 -8.5 5.5t-7.5 2.5q0 8 -1.5 15t-6.5 7q-4 0 -10 -6q-4 -4 -7 -4t-5.5 2.5t-3.5 6.5t-1 8q0 11 8 14q2 -1 8 -1t10.5 -1.5t6.5 -4.5q4 -6 10 -11.5t11 -8.5l5 -3q0 3 2.5 12t2.5 14v5q-1 1 -1 1.5v1v1.5
q0 4 2 7t5.5 6t4.5 7q2 5 3.5 11.5t2.5 10t5 7.5t11 7q-1 2 -1 3q0 4 4 8q3 0 7.5 -0.5t7.5 -0.5q8 0 14 7q-4 7 -10.5 13.5t-11.5 9.5t-15.5 8.5t-14.5 7.5q2 7 2 10t-1 4q12 -5 22 -5q2 0 4 0.5t3.5 0.5t2.5 0.5t2 0.5v1q1 1 1 4q0 8 -5.5 12.5t-12 6t-14.5 4.5t-13 6h-5
h-6q-5 -3 -12 -6t-11.5 -4t-13.5 -2.5t-13 -2.5h-5t-8 0.5t-7 0.5q-5 0 -9 -2q-6 -2 -16 -8t-11 -11q-1 -4 2 -7.5t3 -5.5q-1 -11 -9 -29t-10 -26q-1 -4 -1 -9q0 -7 3 -20.5t3 -19.5v-8q-1 -3 4.5 -14t5.5 -19q4 0 7.5 -2t7.5 -5t6 -4q5 -3 10.5 -5t13 -4.5t11.5 -4.5
q6 -2 15.5 -9t18 -12t17.5 -5h3q1 -2 1 -4q0 -4 -6.5 -14.5t-5.5 -17.5l7 -10.5t9 -9t12 -5.5q0 -2 -1.5 -5t-1.5 -5q0 -3 2 -5q33 -1 71 36zM222 351v0v0zM196 348q0 -5 2.5 -13t5.5 -14.5t3 -7.5q-3 0 -10 1t-11.5 2t-10 2.5t-9.5 4.5q1 4 5 9.5t5 8.5q4 -4 6 -4q3 0 7 5
t7 6z" />
    <glyph glyph-name="uniE659" unicode="&#xe659;" horiz-adv-x="384" 
d="M368 78q-7 0 -11.5 4.5t-4.5 11.5v272q0 7 4.5 11.5t11.5 4.5t11.5 -4.5t4.5 -11.5v-272q0 -7 -4.5 -11.5t-11.5 -4.5zM67 62q-7 0 -11.5 4.5t-5.5 11.5q-18 107 -18 112v80v2v7.5t2 4.5t6 2h64l216 80v-272l-216 64h-12l15 -88q1 -6 -2 -7t-9 -1h-3h-26zM0 190h-3.5
t-8 2t-9.5 5t-7.5 9.5t-3.5 15.5v16q0 6 2 11t4.5 8.5t6 6t7 3.5t6 2t4.5 1h2v-80z" />
    <glyph glyph-name="uniE65A" unicode="&#xe65a;" horiz-adv-x="384" 
d="M192 94q-18 0 -36.5 1.5t-33.5 4t-28.5 5t-23.5 5.5t-17.5 5t-11.5 4l-3 1q-6 3 -10 9t-4 13t4 11.5t11 4.5h5l38 55l20 105q5 25 24.5 45t45.5 26l-5 11q-1 1 -1 4q0 4 3 7t8 3h30q11 0 11 -8q0 -3 -1 -5l-5 -12q17 -4 32 -15t25 -25.5t13 -30.5l20 -105l38 -55h5
q7 0 11 -4.5t4 -11.5q0 -4 -1.5 -8.5t-5 -8t-7.5 -5.5q-2 -1 -7 -2.5t-21 -6t-33 -8t-42.5 -6.5t-50.5 -3zM192 30q-11 0 -20 10t-13 25q16 -2 33 -2t33 2q-4 -15 -13 -25t-20 -10z" />
    <glyph glyph-name="uniE65B" unicode="&#xe65b;" horiz-adv-x="384" 
d="M64 30v96h-32q-13 0 -22.5 9.5t-9.5 22.5v192q0 13 9.5 22.5t22.5 9.5h320q13 0 22.5 -9.5t9.5 -22.5v-192q0 -13 -9.5 -22.5t-22.5 -9.5h-191z" />
    <glyph glyph-name="uniE65C" unicode="&#xe65c;" horiz-adv-x="384" 
d="M63 98l-63 63l176 177l176 -177l-63 -63l-113 113z" />
    <glyph glyph-name="uniE65D" unicode="&#xe65d;" horiz-adv-x="384" 
d="M176 106l-176 177l63 63l113 -113l113 113l63 -63z" />
    <glyph glyph-name="uniE65E" unicode="&#xe65e;" horiz-adv-x="384" 
d="M142 37q-2 -1 -5 -1t-5 1t-3 3.5t-1 5.5v20q0 7 32 37v84l-115 -80q-4 -2 -6 -2q-7 0 -7 9v13q0 6 3.5 14t8.5 13l116 103v109q0 13 6.5 24t17.5 17.5t24 6.5q20 0 34 -14t14 -34v-109l116 -103q5 -5 8.5 -13t3.5 -14v-13q0 -9 -7 -9q-2 0 -6 2l-115 80v-84
q32 -30 32 -37v-20q0 -10 -9 -10q-3 0 -5 1l-66 41z" />
    <glyph glyph-name="uniE65F" unicode="&#xe65f;" horiz-adv-x="384" 
d="M192 64q-26 0 -51 7t-45 19t-37.5 26.5t-30 30t-21.5 30.5t-14 26.5t-5 18.5t4.5 18.5t14 26.5t22 30.5t30 30t37.5 26.5t45 19t51 7t51 -7t45 -19t37.5 -26.5t30 -30t22 -30.5t14 -26.5t4.5 -18.5t-5 -18.5t-14 -26.5t-21.5 -30.5t-30 -30t-37.5 -26.5t-45 -19t-51 -7z
M192 107q18 0 35.5 5t32 14t27 19.5t22.5 23t16.5 21.5t12.5 18q3 5 3 11q0 9 -5 16q-28 37 -52 60q-4 4 -5 4t-1 -1t2 -6q8 -18 8 -38q0 -40 -28 -68t-68 -28t-68 28t-28 68q0 19 7 36q2 5 2 7q0 1 -1 1t-5 -4q-22 -22 -51 -59q-5 -6 -5 -16q0 -6 3 -11q7 -11 15 -22.5
t22.5 -26.5t29.5 -26t36 -18.5t43 -7.5zM157 188q4 -3 11 -3q8 0 13 5l11 11q4 4 4 10q0 7 -5 12q-14 14 -28 37q-4 6 -11 6q-4 0 -9 -3l-11 -12q-7 -7 -7 -17q0 -5 2 -9q12 -21 30 -37z" />
    <glyph glyph-name="uniE660" unicode="&#xe660;" horiz-adv-x="384" 
d="M164 32q-28 8 -50 28.5t-34.5 48.5t-12.5 57q0 16 5.5 33.5t12 30t11.5 29t5 31.5q0 13 -3 26q23 -5 37.5 -28.5t14.5 -49.5q0 -24 -12 -39q19 11 30 25.5t16 29.5t7.5 31t5.5 33t8 33t16.5 32.5t30.5 29.5q-7 -13 -7 -28q0 -18 10 -38.5t24.5 -41t29.5 -41t26 -45.5
t13 -48q1 -5 1 -11q0 -25 -9.5 -48.5t-31.5 -44t-55 -34.5q33 30 33 65q0 15 -3.5 28.5t-8.5 23.5t-10 27.5t-8 38.5q-2 -12 -10.5 -24.5t-21 -23t-26 -23t-25 -23.5t-19 -24t-7.5 -25q1 -27 17 -41z" />
    <glyph glyph-name="uniE661" unicode="&#xe661;" horiz-adv-x="384" 
d="M218 36l-218 218v152q0 3 2.5 5.5t5.5 2.5h152l218 -218q3 -3 3 -6t-3 -6l-148 -148q-3 -3 -6 -3t-6 3zM57 312q9 -9 22 -9q14 0 23.5 9.5t9.5 22.5t-10 23q-9 9 -23 9q-13 0 -22 -9q-10 -10 -10 -23q0 -14 10 -23z" />
    <glyph glyph-name="uniE662" unicode="&#xe662;" horiz-adv-x="384" 
d="M0 222v192h160v-96h32v-32h-32v-32h-128v-32h-32zM288 158v96h-64v96h-32v64h192v-160h-64v-32h64v-64h-96zM32 286h96v96h-96v-96zM256 286h96v96h-96v-96zM64 318v32h32v-32h-32zM288 318v32h32v-32h-32zM0 30v160h64v32h32v-32h64v-160h-160zM224 62v32h-32v32h32v64
h-64v32h96v-96h64v-32h-32v-32h-64zM32 62h96v96h-96v-96zM64 94v32h32v-32h-32zM352 94v32h32v-32h-32zM192 30v32h32v-32h-32zM288 30v32h96v-32h-96z" />
    <glyph glyph-name="uniE663" unicode="&#xe663;" horiz-adv-x="384" 
d="M32 30v344q0 3 2.5 5.5t5.5 2.5h16q3 0 5.5 -2.5t2.5 -5.5v-344h-32zM274 160q-6 0 -13 1t-14.5 3t-12.5 4t-14 5q-13 5 -20.5 7.5t-19 4.5t-20.5 2q-27 0 -51 -18q-2 -1 -5 -1q-2 0 -4 1q-4 2 -4 7v140q7 17 26 31t38 15q8 1 14 0.5t13.5 -2.5t10.5 -2.5t12 -4t11 -3.5
q10 -4 15 -5.5t13.5 -4t16 -3.5t14.5 -1q33 0 58 28q2 3 6 3q1 0 3 -1q5 -2 5 -7v-135q0 -2 -1 -4q-11 -19 -21.5 -31.5t-20.5 -18.5t-18 -8t-17 -2z" />
    <glyph glyph-name="uniE664" unicode="&#xe664;" horiz-adv-x="384" 
d="M328 30q-3 0 -5.5 2.5t-2.5 5.5v368q0 3 2.5 5.5t5.5 2.5h48q3 0 5.5 -2.5t2.5 -5.5v-368q0 -3 -2.5 -5.5t-5.5 -2.5h-48zM232 30q-3 0 -5.5 2.5t-2.5 5.5v240q0 3 2.5 5.5t5.5 2.5h48q3 0 5.5 -2.5t2.5 -5.5v-240q0 -3 -2.5 -5.5t-5.5 -2.5h-48zM136 30q-3 0 -5.5 2.5
t-2.5 5.5v144q0 3 2.5 5.5t5.5 2.5h48q3 0 5.5 -2.5t2.5 -5.5v-144q0 -3 -2.5 -5.5t-5.5 -2.5h-48zM40 30q-3 0 -5.5 2.5t-2.5 5.5v80q0 3 2.5 5.5t5.5 2.5h48q3 0 5.5 -2.5t2.5 -5.5v-80q0 -3 -2.5 -5.5t-5.5 -2.5h-48z" />
    <glyph glyph-name="uniE665" unicode="&#xe665;" horiz-adv-x="384" 
d="M208 58q-20 27 -47 55.5t-48 49t-40.5 41t-30 40t-10.5 37.5q0 26 14 49t37 36t48 13q10 0 20.5 -2.5t20.5 -8t19 -14t17 -20.5q11 15 24 25.5t26.5 15t28.5 4.5q25 0 47 -13t36 -36t14 -49q0 -18 -11 -37.5t-30 -40t-40.5 -41t-48 -49t-46.5 -55.5z" />
    <glyph glyph-name="uniE666" unicode="&#xe666;" horiz-adv-x="384" 
d="M67 62q-3 -2 -6 -2q-2 0 -2 3v5l42 128l-111 81q-5 3 -5 5q0 4 8 4h137l42 113q2 6 6 6q3 0 5 -6l42 -113h135q7 0 7 -4q0 -2 -4 -5l-110 -80l42 -128q1 -3 1 -5q0 -4 -3 -4q-2 0 -6 3l-110 78z" />
    <glyph glyph-name="uniE667" unicode="&#xe667;" horiz-adv-x="384" 
d="M67 62q-3 -2 -6 -2q-2 0 -2 3v5l42 128l-111 81q-5 3 -5 5q0 4 8 4h137l42 113q2 6 6 6q3 0 5 -6l42 -113h135q7 0 7 -4q0 -2 -4 -5l-110 -80l42 -128q1 -3 1 -5q0 -4 -3 -4q-2 0 -6 3l-110 78zM239 136l-23 73l61 45h-75l-25 68l-24 -68h-77l63 -45l-24 -73l62 45z" />
    <glyph glyph-name="uniE668" unicode="&#xe668;" horiz-adv-x="384" 
d="M80 190q-20 0 -34 14t-14 34t14 34t34 14t34 -14t14 -34t-14 -34t-34 -14zM208 190q-20 0 -34 14t-14 34t14 34t34 14t34 -14t14 -34t-14 -34t-34 -14zM336 190q-20 0 -34 14t-14 34t14 34t34 14t34 -14t14 -34t-14 -34t-34 -14z" />
    <glyph glyph-name="uniE669" unicode="&#xe669;" horiz-adv-x="564" 
d="M427 480h-341q-18 0 -33 -6.5t-28 -18.5q-11 -12 -18 -27.5t-6 -32.5l-1 -342q1 -17 7 -32.5t19 -27.5q11 -12 27 -18.5t32 -6.5h343q16 0 32 6.5t27 18.5q13 12 19 27.5t7 32.5l-1 342q1 17 -6 32.5t-18 27.5q-13 12 -28 18.5t-33 6.5v0zM232.15 304.3l-51.3008 -100.8
h-74.6992l125.1 249.3l126.9 -249.3h-74.7002zM225.85 202.6h57.6006l37.7998 -74.6992l36.9004 74.6992h56.6992l-94.5 -185.399z" />
  </font>
</defs>
</svg>
