<?xml version="1.0"?>
<svg width="104" height="47.99999999999999" xmlns="http://www.w3.org/2000/svg" viewbox="0 0 104 49">
 <metadata id="metadata3010">image/svg+xml</metadata>
 <defs>
  <clipPath clipPathUnits="userSpaceOnUse" id="clipPath3018">
   <path d="m-75.454964,152.283829l164.999985,0l0,-95.000008l-164.999985,0l0,95.000008z" id="path3020"/>
  </clipPath>
 </defs>
 <g>
  <title>background</title>
  <rect x="-1" y="-1" width="27.999964" height="13.999983" id="canvas_background" fill="none"/>
 </g>
 <g>
  <title>Layer 1</title>
  <path stroke="null" d="m2.719615,5.43914l4.540329,0l4.54271,0l0,11.60586l0,11.603857l2.773827,0l2.7743,0l0,-11.603857l0,-11.60586l8.829559,0l8.829556,0l0,-2.522715l0,-2.522739l-16.144209,0l-16.146072,0l0,5.045454l0,0zm99.396284,12.613636l-2.271179,0l-2.269173,0l0,-8.829557l0,-8.829533l-2.271645,0l-2.271179,0l0,10.596059l0,10.596199l4.542824,0l4.540352,0l0,-3.533167zm0,6.560383l-10.344467,0l-10.342567,0l0,-3.784081l0,-3.784079l4.2892,0l4.289322,0l0,-2.27106l0,-2.269292l-4.289322,0l-4.2892,0l0,-3.53246l0,-3.533048l4.2892,0l4.289322,0l0,-2.522715l0,-2.522739l-7.065506,0l-7.063034,0l0,14.128516l0,14.126774l13.118172,0l13.118881,0l0,-4.035816zm0,19.172134l-3.784195,0l-3.784081,0l0,-1.261398l0,-1.261284l2.522797,0l2.522682,0l0,-1.51302l0,-1.514904l-2.522682,0l-2.522797,0l0,-1.007889l0,-1.009663l2.522797,0l2.522682,0l0,-1.513023l0,-1.514904l-5.045479,0l-5.045486,0l0,7.066097l0,7.062447l6.306885,0l6.306877,0l0,-3.532459zm-54.263371,3.323032c0,0 0.86105,-0.428875 1.317852,-0.844547c0.285088,-0.259399 0.936237,-0.889805 0.936237,-0.889805c0,0 0.425102,-0.826633 0.518799,-1.199524c0.139069,-0.553802 0.026161,-1.530109 0.026161,-1.530109c0,0 -0.087334,-1.343426 -0.31361,-1.866463c-0.217445,-0.502769 -0.884148,-0.968414 -0.884148,-0.968414c0,0 -1.059162,-0.600822 -1.539185,-0.86694c-0.794811,-0.440777 -2.296635,-0.95639 -2.296635,-0.95639c-2.971115,-0.783852 -3.278835,-0.973125 -2.808357,-1.734348c0,0 0.173954,-0.280025 0.358513,-0.38303c0.267414,-0.149441 0.892746,-0.156864 0.892746,-0.156864c0,0 0.593636,0.070122 0.866589,0.209072c0.34956,0.177845 0.744843,0.742016 0.744843,0.742016l0.689922,0.951088l1.89204,-0.24844l1.892036,-0.249142l0,-0.86718l-0.31361,-1.073772l-0.915611,-0.946373c0,0 -0.79776,-0.527164 -1.308189,-0.763466c-0.682377,-0.315731 -2.163105,-0.645489 -2.163105,-0.645489c0,0 -1.389507,-0.146492 -2.189743,-0.120918c-0.643955,0.020508 -1.887562,0.475426 -1.887562,0.475426c0,0 -1.134586,0.395401 -1.62439,0.812607c-0.428047,0.364525 -0.984791,1.28886 -0.984791,1.28886c0,0 -0.409195,0.884144 -0.460224,1.443012c-0.035236,0.385624 0.024513,1.163582 0.024513,1.163582c0.187271,0.61108 0.691807,1.51231 1.125748,2.005531c0,0 0.55545,0.420036 0.890278,0.632999c0.783733,0.498409 2.570881,1.039597 2.570881,1.039597l2.677891,0.778198c0,0 0.422157,0.164288 0.529404,0.337418c0.10725,0.173244 0.137302,0.49958 0.11385,0.701942c-0.039478,0.341187 -0.329876,0.772064 -0.572891,1.014606c-0.242428,0.242077 -0.883324,0.439129 -0.883324,0.439129l-0.859631,-0.329876c-0.473068,-0.182201 -1.089211,-0.758629 -1.367348,-1.281433l-0.510193,-0.948612l-1.97089,0l-1.970882,0l-0.23653,0.382206l-0.236538,0.384083l0.695107,1.65303c0,0 0.535889,1.017441 0.955688,1.442074c0.423565,0.428398 1.39669,0.928692 1.39669,0.928692c0,0 1.014614,0.491104 1.603298,0.616974c0.622509,0.133057 1.962044,0.123978 1.962044,0.123978c0,0 1.334942,-0.014732 1.958748,-0.136589c0.606361,-0.118324 1.657509,-0.558395 1.657509,-0.558395l0,0zm14.126064,0c0,0 0.834766,-0.428989 1.291691,-0.844547c0.285324,-0.259399 0.889095,-0.90831 0.889095,-0.90831c0,0 0.343781,-0.677311 0.437828,-1.050438c0.13942,-0.55368 0.182915,-1.66069 0.182915,-1.66069c0,0 -0.034889,-1.029934 -0.261406,-1.552971c-0.217796,-0.503002 -0.93824,-1.281906 -0.93824,-1.281906c0,0 -0.928932,-0.626865 -1.409187,-0.893105c-0.794811,-0.440536 -2.427219,-0.930225 -2.427219,-0.930225c-2.970528,-0.783852 -3.27636,-0.973125 -2.805885,-1.734348c0,0 0.226753,-0.358398 0.41143,-0.461521c0.266705,-0.148853 0.837944,-0.078373 0.837944,-0.078373c0,0 0.593636,0.070122 0.866589,0.209072c0.349442,0.177845 0.744137,0.742016 0.744137,0.742016l0.692516,0.951088l1.892033,-0.24844l1.89204,-0.249142l0,-0.86718c0,0 -0.289093,-0.785378 -0.496521,-1.12598c-0.206715,-0.339657 -0.732704,-0.894165 -0.732704,-0.894165c0,0 -0.877426,-0.605537 -1.388447,-0.841835c-0.682732,-0.315613 -2.085316,-0.56712 -2.085316,-0.56712c0,0 -1.52021,-0.120445 -2.268238,-0.042542c-0.63995,0.066704 -1.806591,0.397049 -1.806591,0.397049c0,0 -1.109955,0.44714 -1.600113,0.864819c-0.427696,0.364525 -1.009075,1.236649 -1.009075,1.236649c0,0 -0.356274,0.936478 -0.407307,1.495342c-0.035355,0.385506 -0.028397,1.111252 -0.028397,1.111252c0.184795,0.61108 0.689919,1.51231 1.123154,2.005531l0.785854,0.894283l2.677895,0.778313c0,0 1.751438,0.511959 2.435818,0.833706c0.184563,0.086742 0.562405,0.464817 0.562405,0.464817c0,0 0.160988,0.526222 0.137539,0.728107c-0.0396,0.340363 -0.286152,0.709133 -0.465294,0.884029c-0.245255,0.239243 -0.805534,0.360634 -0.805534,0.360634l-0.859631,-0.329876c-0.475544,-0.182201 -1.091103,-0.758629 -1.369827,-1.281433l-0.507008,-0.948612l-1.971004,0l-1.970768,0l-0.23653,0.382206l-0.239014,0.384083l0.694283,1.65303c0,0 0.560638,0.93388 0.935295,1.318562c0.415081,0.426044 1.417789,1.052204 1.417789,1.052204c0,0 1.048439,0.521744 1.637123,0.64761c0.622272,0.132942 1.927513,0.093342 1.927513,0.093342c0,0 1.340008,0.012966 1.96452,-0.109131c0.605541,-0.118328 1.651852,-0.585854 1.651852,-0.585854l0,0l0,0zm-53.659723,-4.205292l0.04726,-4.414841l1.110662,4.289909l1.111252,4.286144l1.840302,0.155685l1.842893,0.154625l0.502652,-1.921741c0.278137,-1.053856 0.837476,-3.167934 1.24372,-4.69545l0.736591,-2.773708l0.04726,4.665749l0.046669,4.668346l1.76405,0l1.766523,0l0,-7.062447l0,-7.066097l-2.971115,0l-2.968643,0l-0.980669,3.912781l-0.978193,3.908886l-0.936005,-3.908886l-0.936473,-3.912781l-3.187497,0l-3.185613,0l0,7.066097l0,7.062447l2.017554,0l2.017554,0l0.049264,-4.414719zm18.366714,3.404938l0.319738,-1.007183l2.431932,0l2.428751,0l0.263638,1.007183l0.263645,1.009781l2.318317,0l2.318439,0l-0.024632,-0.630642c-0.015083,-0.346966 -1.09864,-3.468819 -2.411659,-6.937519l-2.387856,-6.306873l-2.744013,0l-2.747313,0l-2.387146,6.306873c-1.313019,3.4687 -2.397165,6.590553 -2.409187,6.937519l-0.02463,0.630642l2.234526,0l2.237,0l0.320448,-1.009781l0,0zm1.901466,-6.31937l0.546844,-1.778545l0.379612,0.392338c0.209429,0.213791 0.534826,1.014732 0.724098,1.77784l0.342369,1.387501l-1.268234,0l-1.268942,0l0.544252,-1.779133zm42.750856,2.283672l0,-5.045475l-2.271065,0l-2.269173,0l0,5.045475l0,5.045479l2.269173,0l2.271065,0l0,-5.045479zm14.700607,-1.765934c1.342712,-3.606827 2.443832,-6.742584 2.446426,-6.964626l0.007774,-0.406128l-2.370178,0.152031l-2.372528,0.155102l-1.35981,4.540939l-1.360397,4.540237l-0.31279,-0.761227c-0.17218,-0.418739 -0.827446,-2.463398 -1.458214,-4.540234l-1.145897,-3.779716l-2.379608,-0.155102l-2.377007,-0.152031l0,0.462933c0,0.38409 1.990448,5.850899 4.49556,12.356953l0.544853,1.414608l2.601517,-0.153214l2.601646,-0.152618l2.438652,-6.557907l0,0zm-14.700607,-8.073284l0,-2.268585l-2.271065,0l-2.269173,0l0,2.268585l0,2.271057l2.269173,0l2.271065,0l0,-2.271057zm-45.913723,-7.063034l0,-3.279545l1.499819,0l1.502884,0l1.885088,3.279545l1.886971,3.278954l4.36758,0l4.36805,0l0.640778,-2.29133l0.642658,-2.290625l3.545658,0.147554l3.546959,0.145079l0.712078,2.145546l0.712074,2.143776l2.153088,0l2.151321,0l-3.538113,-9.862082l-3.540001,-9.863851l-2.259159,0.150146l-2.259159,0.150029l-3.333168,9.206694c-1.833347,5.065042 -3.446663,9.204216 -3.584785,9.199148c-0.342369,-0.010019 -4.037586,-6.363565 -4.037586,-6.939991c0,-0.254213 0.452797,-0.86977 1.007187,-1.372419c0,0 0.519859,-0.668001 0.757095,-1.052443c0.302536,-0.490276 0.536594,-0.985502 0.696171,-1.521975c0.159931,-0.537537 0.237476,-1.089805 0.251385,-1.665642c0.015793,-0.654684 -0.209312,-1.916671 -0.209312,-1.916671c0,0 -0.215557,-1.201411 -0.535297,-1.772888c-0.265171,-0.473895 -0.612839,-0.956038 -1.063282,-1.27955c-0.618031,-0.443841 -1.349674,-0.660929 -2.129753,-0.821683c-1.720209,-0.354625 -4.602934,-0.313612 -4.602934,-0.313612l-5.269991,0l0,9.839335l0,9.837452l2.017555,0l2.018143,0l0,-3.278954l0,0zm18.163654,-4.696039c0,-0.223925 0.502647,-1.869411 1.113842,-3.657974l1.113728,-3.249962l0.196819,0.94602c0.108425,0.522214 0.618031,2.168291 1.130814,3.658564l0.931526,2.71007l-2.242069,0l-2.244659,0l0,-0.406717zm-18.163654,-5.331157l0,-2.838178l1.977839,0c1.08662,0 2.335407,0.13565 2.774418,0.305951c0,0 0.309721,0.162168 0.471182,0.396698c0.311842,0.453271 0.326576,1.558982 0.326576,1.558982c0,0 -0.014612,1.034883 -0.248201,1.532938c-0.120684,0.257158 -0.407072,0.66246 -0.407072,0.66246l-0.655272,0.544373l-2.118437,0.337416l-2.121033,0.339895l0,-2.840535l0,0zm44.731174,-0.820624l5.146355,-13.874975l-2.551666,-0.155156c-1.404594,-0.085774 -2.809067,-0.056122 -3.121857,0.064325l-0.566406,0.216958l-3.527985,10.53177l-3.529984,10.531733l-3.530575,-10.59349l-3.533047,-10.596141l-8.449947,-0.137501l-8.452427,-0.140636l0,2.269198l0,2.26604l6.175709,0.140635l6.174404,0.143171l4.042656,10.847087c2.221916,5.966867 4.20977,11.258307 4.414719,11.756598l0.372185,0.908779l2.894157,-0.152624l2.897346,-0.150736l5.146362,-13.875036l0,0z" id="path3024" fill-rule="nonzero" fill="#191919"/>
 </g>
</svg>