<?xml version="1.0"?>
<svg width="104" height="48" xmlns="http://www.w3.org/2000/svg">
 <metadata id="metadata3010">image/svg+xml</metadata>
 <defs>
  <clipPath id="clipPath3018" clipPathUnits="userSpaceOnUse">
   <path id="path3020" d="m-75.454964,152.283829l164.999992,0l0,-95.000011l-164.999992,0l0,95.000011z"/>
  </clipPath>
 </defs>
 <g>
  <title>background</title>
  <rect fill="none" id="canvas_background" height="50" width="106" y="-1" x="-1"/>
 </g>
 <g>
  <title>Layer 1</title>
  <path fill="#191919" fill-rule="nonzero" id="path3024" d="m9.79702,8.5862l3.85244,0l3.854589,0l0,9.847581l0,9.845959l2.353531,0l2.354059,0l0,-9.845959l0,-9.847581l7.491901,0l7.491898,0l0,-2.14053l0,-2.14055l-13.698408,0l-13.70001,0l0,4.28108zm84.337936,10.702731l-1.927017,0l-1.925423,0l0,-7.491901l0,-7.49191l-1.927544,0l-1.927032,0l0,8.99082l0,8.99082l3.854576,0l3.85244,0l0,-2.997829zm0,5.566479l-8.777298,0l-8.775681,0l0,-3.210819l0,-3.21081l3.639442,0l3.639473,0l0,-1.927021l0,-1.92542l-3.639473,0l-3.639442,0l0,-2.9973l0,-2.99784l3.639442,0l3.639473,0l0,-2.14053l0,-2.14055l-5.995132,0l-5.992981,0l0,11.98812l0,11.986511l11.130821,0l11.131355,0l0,-3.424341zm0,16.267591l-3.210808,0l-3.210815,0l0,-1.070271l0,-1.070271l2.140549,0l2.140541,0l0,-1.283791l0,-1.2854l-2.140541,0l-2.140549,0l0,-0.855141l0,-0.856758l2.140549,0l2.140541,0l0,-1.283791l0,-1.2854l-4.28109,0l-4.28109,0l0,5.99567l0,5.992451l5.351357,0l5.351357,0l0,-2.997299zm-46.042545,2.81963c0,0 0.730549,-0.363972 1.118179,-0.716629c0.241959,-0.220123 0.794399,-0.754993 0.794399,-0.754993c0,0 0.360729,-0.70142 0.440189,-1.017838c0.117981,-0.469891 0.022171,-1.298222 0.022171,-1.298222c0,0 -0.074051,-1.139957 -0.26606,-1.58379c-0.18454,-0.426571 -0.75016,-0.821648 -0.75016,-0.821648c0,0 -0.89872,-0.509781 -1.306061,-0.735641c-0.67437,-0.373932 -1.948639,-0.81144 -1.948639,-0.81144c-2.521019,-0.665173 -2.782169,-0.825722 -2.382961,-1.47163c0,0 0.147652,-0.237591 0.304192,-0.325039c0.226891,-0.126762 0.757519,-0.13303 0.757519,-0.13303c0,0 0.503712,0.059498 0.735352,0.17738c0.296558,0.150898 0.63192,0.629608 0.63192,0.629608l0.585438,0.80698l1.605412,-0.210838l1.6054,-0.21138l0,-0.735821l-0.26606,-0.911041l-0.776909,-0.802998c0,0 -0.676903,-0.447342 -1.110031,-0.647793c-0.57901,-0.267948 -1.835361,-0.547699 -1.835361,-0.547699c0,0 -1.179028,-0.12431 -1.85807,-0.102659c-0.546368,0.01742 -1.601589,0.403399 -1.601589,0.403399c0,0 -0.96265,0.335529 -1.378258,0.68951c-0.363213,0.309341 -0.83559,1.093571 -0.83559,1.093571c0,0 -0.347221,0.750229 -0.39056,1.224461c-0.029892,0.32716 0.020779,0.987259 0.020779,0.987259c0.158939,0.518539 0.587051,1.283249 0.955219,1.701729c0,0 0.47134,0.3564 0.75547,0.537102c0.664951,0.42292 2.181362,0.88208 2.181362,0.88208l2.272179,0.660358c0,0 0.358261,0.139332 0.44923,0.286282c0.090988,0.147018 0.116501,0.42387 0.096611,0.595619c-0.03352,0.289429 -0.279922,0.655052 -0.486122,0.860901c-0.205669,0.205311 -0.749508,0.372589 -0.749508,0.372589l-0.729393,-0.279881c-0.40136,-0.154648 -0.924179,-0.643768 -1.160179,-1.087399l-0.432919,-0.80484l-1.672302,0l-1.672298,0l-0.20068,0.324299l-0.20068,0.32589l0.589729,1.402592c0,0 0.45472,0.86335 0.810902,1.223618c0.359421,0.363533 1.185158,0.78796 1.185158,0.78796c0,0 0.860889,0.416721 1.360382,0.52351c0.528229,0.112923 1.664738,0.10527 1.664738,0.10527c0,0 1.132782,-0.012577 1.66206,-0.11591c0.514481,-0.10043 1.406403,-0.473808 1.406403,-0.473808zm11.98597,0c0,0 0.70829,-0.364071 1.096008,-0.716629c0.242069,-0.220123 0.754402,-0.770672 0.754402,-0.770672c0,0 0.291729,-0.574692 0.371468,-0.8913c0.11832,-0.46981 0.155201,-1.409081 0.155201,-1.409081c0,0 -0.029549,-0.87397 -0.221718,-1.31773c-0.184872,-0.426849 -0.796112,-1.087708 -0.796112,-1.087708c0,0 -0.78825,-0.531933 -1.19574,-0.757813c-0.674412,-0.373848 -2.05949,-0.789268 -2.05949,-0.789268c-2.520489,-0.665173 -2.780029,-0.825722 -2.380821,-1.47163c0,0 0.192413,-0.304131 0.349072,-0.39156c0.226318,-0.126312 0.71104,-0.066509 0.71104,-0.066509c0,0 0.503738,0.059448 0.73534,0.177368c0.296429,0.150928 0.63139,0.629612 0.63139,0.629612l0.587582,0.806988l1.605408,-0.210838l1.6054,-0.21138l0,-0.735821c0,0 -0.245331,-0.666401 -0.421261,-0.955379c-0.175419,-0.288162 -0.621708,-0.758659 -0.621708,-0.758659c0,0 -0.744591,-0.51387 -1.178162,-0.714302c-0.579269,-0.267788 -1.769379,-0.48119 -1.769379,-0.48119c0,0 -1.28989,-0.102261 -1.924572,-0.03614c-0.54303,0.05658 -1.53294,0.336891 -1.53294,0.336891c0,0 -0.941818,0.379391 -1.3577,0.733841c-0.362907,0.309307 -0.856148,1.049229 -0.856148,1.049229c0,0 -0.302299,0.794659 -0.34568,1.26881c-0.029919,0.32711 -0.024101,0.942909 -0.024101,0.942909c0.156799,0.518539 0.585449,1.283249 0.953079,1.701729l0.666782,0.758831l2.27219,0.660351c0,0 1.48613,0.434418 2.066769,0.70739c0.156651,0.07365 0.477261,0.394451 0.477261,0.394451c0,0 0.136608,0.446438 0.11665,0.617798c-0.033638,0.28878 -0.242741,0.601692 -0.39476,0.750042c-0.20808,0.203049 -0.683529,0.306068 -0.683529,0.306068l-0.729389,-0.279881c-0.403492,-0.154648 -0.925781,-0.643768 -1.162312,-1.087379l-0.430248,-0.804859l-1.672302,0l-1.672298,0l-0.200672,0.324299l-0.20282,0.325901l0.58918,1.40258c0,0 0.475639,0.792458 0.793541,1.11879c0.352211,0.361568 1.20306,0.892788 1.20306,0.892788c0,0 0.889561,0.442703 1.38905,0.549492c0.528049,0.112881 1.635529,0.079288 1.635529,0.079288c0,0 1.13694,0.010983 1.666893,-0.092609c0.513798,-0.10046 1.401577,-0.497101 1.401577,-0.497101l-0.000008,-0.000008zm-45.53042,-3.568279l0.04013,-3.745953l0.94237,3.639992l0.942909,3.63678l1.561531,0.132179l1.56366,0.131111l0.42651,-1.630562c0.235991,-0.894199 0.710659,-2.687981 1.05529,-3.984089l0.62504,-2.353519l0.040129,3.958931l0.0396,3.961079l1.49678,0l1.498911,0l0,-5.992451l0,-5.99567l-2.521021,0l-2.51889,0l-0.83213,3.319992l-0.83,3.316769l-0.79414,-3.316769l-0.79468,-3.319992l-2.70457,0l-2.70298,0l0,5.99567l0,5.992451l1.7119,0l1.711901,0l0.04175,-3.745949zm15.584219,2.889198l0.27132,-0.854618l2.06348,0l2.06081,0l0.22369,0.854618l0.223679,0.85675l1.967163,0l1.967148,0l-0.020859,-0.53513c-0.01284,-0.294331 -0.932209,-2.94326 -2.04636,-5.886501l-2.02602,-5.35136l-2.328381,0l-2.331039,0l-2.02549,5.35136c-1.114161,2.943249 -2.034061,5.592171 -2.044231,5.886501l-0.020859,0.53513l1.895979,0l1.89813,0l0.271839,-0.85675zm1.613441,-5.362068l0.463959,-1.509083l0.322151,0.332863c0.17767,0.181408 0.453789,0.861027 0.61433,1.508537l0.290588,1.177311l-1.07616,0l-1.076698,0l0.46183,-1.509628zm36.274178,1.937729l0,-4.281082l-1.927017,0l-1.925423,0l0,4.281082l0,4.28109l1.925423,0l1.927017,0l0,-4.28109zm12.473473,-1.498371c1.139313,-3.060448 2.073662,-5.721138 2.075798,-5.909508l0.006592,-0.344631l-2.01104,0.128971l-2.013168,0.131638l-1.15377,3.852982l-1.154282,3.85244l-0.265434,-0.645912c-0.146088,-0.355328 -0.702095,-2.090229 -1.237236,-3.85244l-0.972343,-3.207069l-2.019066,-0.131638l-2.016914,-0.128971l0,0.392788c0,0.325901 1.688896,4.964462 3.814445,10.484921l0.462357,1.200302l2.207428,-0.130032l2.207436,-0.129509l2.069199,-5.564331zm-12.473473,-6.850279l0,-1.924881l-1.927017,0l-1.925423,0l0,1.924881l0,1.927019l1.925423,0l1.927017,0l0,-1.927019zm-38.957888,-5.99299l0,-2.782709l1.272549,0l1.27523,0l1.59952,2.782709l1.601131,2.782181l3.705818,0l3.706352,0l0.54369,-1.944151l0.545307,-1.943621l3.008541,0.125221l3.00959,0.123079l0.604179,1.82053l0.60416,1.818941l1.826962,0l1.82534,0l-3.00211,-8.36792l-3.003712,-8.369531l-1.916859,0.12737l-1.916862,0.127359l-2.82819,7.811911c-1.555637,4.29767 -2.924519,7.809771 -3.041718,7.80549c-0.290569,-0.00856 -3.42593,-5.399521 -3.42593,-5.888641c0,-0.215649 0.384228,-0.73794 0.85461,-1.16445c0,0 0.441078,-0.566889 0.64238,-0.89307c0.256699,-0.415989 0.45533,-0.83617 0.590729,-1.291359c0.13567,-0.456141 0.201469,-0.924671 0.213268,-1.41329c0.013412,-0.55549 -0.177578,-1.626281 -0.177578,-1.626281c0,0 -0.182861,-1.01946 -0.454182,-1.50433c-0.224998,-0.40209 -0.519989,-0.81123 -0.90218,-1.08572c-0.52441,-0.37663 -1.145218,-0.56075 -1.807098,-0.69719c-1.459671,-0.30087 -3.90568,-0.26606 -3.90568,-0.26606l-4.47159,0l0,8.34865l0,8.347061l1.711899,0l1.712431,0l0,-2.782181zm15.411909,-3.984619c0,-0.18997 0.42651,-1.586142 0.945061,-3.10379l0.945049,-2.757561l0.16695,0.80271c0.092049,0.44309 0.524441,1.8398 0.959511,3.10433l0.79039,2.299471l-1.902412,0l-1.904549,0l0,-0.34516zm-15.411909,-4.5235l0,-2.408111l1.67819,0c0.922029,0 1.981609,0.11505 2.354057,0.259541c0,0 0.262852,0.137569 0.399803,0.336599c0.264618,0.38457 0.277138,1.32286 0.277138,1.32286c0,0 -0.012409,0.87804 -0.210621,1.300671c-0.10236,0.218229 -0.345379,0.56213 -0.345379,0.56213l-0.556011,0.46183l-1.797518,0.286289l-1.79966,0.288441l0,-2.41025zm37.954508,-0.696211l4.366714,-11.77299l-2.165161,-0.13165c-1.191765,-0.07278 -2.383499,-0.04762 -2.648918,0.05458l-0.48056,0.18409l-2.993542,8.93624l-2.995163,8.936231l-2.995689,-8.988681l-2.997829,-8.99081l-7.16975,-0.11667l-7.17189,-0.11933l0,1.92542l0,1.92274l5.240051,0.119329l5.238979,0.121481l3.430222,9.20381c1.885288,5.06292 3.572029,9.55271 3.745949,9.97546l0.315731,0.771139l2.455738,-0.129509l2.45842,-0.12789l4.366699,-11.772991z"/>
 </g>
</svg>