<svg xmlns="http://www.w3.org/2000/svg" width="104" height="48" viewBox="0 0 104 48"><path fill="#223141" d="M68.2 14.3l5.2-14-2.6-.2c-1.4-.1-2.8 0-3.1.1l-.6.2-3.6 10.7-3.5 10.6-3.6-10.7-3.6-10.7-8.5-.1-8.6-.2v4.6l6.3.1 6.2.1 4.1 11c2.2 6 4.3 11.4 4.5 11.9l.4.9 2.9-.2 2.9-.2 5.2-13.9zm-45.2.8v-2.9h2c1.1 0 2.4.1 2.8.3l.8.3v3.4l-.7.6-.7.6-2.1.3-2.1.3v-2.9zm18.3 5.4c0-.2.5-1.9 1.1-3.7l1.1-3.3.2 1c.1.5.6 2.2 1.1 3.7l.9 2.7h-4.6v-.4zm-18.3 4.8v-3.3h3l1.9 3.3 1.9 3.3h8.8l.6-2.3.8-2.3 3.6.1 3.6.1.7 2.2.7 2.2h4.4l-3.6-10-3.6-10-2.3.2-2.3.2-3.4 9.3c-1.9 5.1-3.5 9.3-3.6 9.3-.3 0-4.1-6.4-4.1-7 0-.3.5-.9 1-1.4l1-.9.5-1.7.5-1.7-.4-1.9-.5-2-1.3-1.1-1.3-1.1h-10.6v20h4v-3.5zm46.4 7.1v-2.3h-4.6v4.6h4.6v-2.3zm14.9 8.2c1.4-3.6 2.5-6.8 2.5-7v-.4l-2.4.2-2.4.1-1.4 4.5-1.4 4.6-.3-.8c-.2-.4-.8-2.5-1.5-4.6l-1.2-3.8-2.4-.2-2.4-.2v.5c0 .4 2 5.9 4.5 12.5l.6 1.4 2.6-.2 2.6-.2 2.6-6.4zm-14.9 1.8v-5.1h-4.6v10.2h4.6v-5.1zm-43.2-2.3l.6-1.8.4.4c.2.2.5 1 .7 1.8l.3 1.4h-2.6l.6-1.8zm-2 6.4l.3-1h5l.3 1 .3 1h4.6v-.6c0-.4-1.1-3.5-2.4-7l-2.4-6.4h-5.699999999999999l-2.4 6.4c-1.3 3.5-2.4 6.7-2.4 7v.6h4.6l.2-1zm-18.5-3.5v-4.5l1.1 4.3 1.2 4.4 1.9.2 1.9.2.5-1.9c.3-1.1.8-3.2 1.3-4.7l.7-2.8v9.4h3.6v-14.2h-6l-1 4-1 4-.9-4-.9-4h-6.6v14.2h4l.2-4.6zm54.2 4.3l1.7-.7.6-1 .6-1v-3.5999999999999996l-1.2-1.1-1.2-1.1-2.7-.8c-3-.8-3.3-1-2.8-1.8l.3-.5h1.8l.7 1 .7 1 1.9-.3 1.9-.3v-1.8l-1.2-1.1-1.2-1.2-2.3-.3-2.3-.3-1.9.6-1.9.6-.8 1.5-.6 1.7.3 1.1c.2.6.7 1.5 1.1 2l.8.9 2.7.8 2.7.8.4.6.3.5-.7.7-.8.8-.8-.4c-.5-.2-1.1-.8-1.4-1.3l-.5-1h-4l-.2.4-.2.4.7 1.7.7 1.7 1.7.7 1.7.7h3.8l1.6-.6zm-14.2 0l1.7-.7.6-1 .6-1v-3.5999999999999996l-1.2-1.1-1.2-1.1-2.8-.8c-3-.8-3.3-1-2.8-1.8l.3-.5h1.8l.7 1 .7 1 1.9-.3 1.9-.3v-1.8l-1.2-1.2-1.2-1.2-2.3-.3-2.3-.3-1.9.6-1.9.6-.8 1.5-.8 1.5.3 1.1c.2.6.7 1.5 1.1 2l.8.9 2.7.8 2.7.8.3.5.3.5-.7.7-.5 1.2-.9-.3c-.5-.2-1.1-.8-1.4-1.3l-.5-1h-4l-.2.4-.2.4.7 1.7.7 1.7 1.7.7 1.7.7h3.8l1.8-.7zm54.8-3.4h-7.6v-2.6h5.1v-3h-5.2v-2h5.2v-3h-10.2v14.2h12.8v-3.6zm0-19.4h-20.9v-7.6h8.7v-4.6h-8.6v-7.2h8.6v-5.1h-14.3v28.6h26.6v-4.1zm0-6.6h-4.6v-17.9h-4.6v21.4h9.2v-3.5zm-100.5-12.8h9.2v23.4h5.6v-23.4h17.8v-5.1h-32.6v5.1z"/></svg>