<?xml version="1.0" encoding="utf-8"?>
<!-- Generator: Adobe Illustrator 17.1.0, SVG Export Plug-In . SVG Version: 6.00 Build 0)  -->
<!DOCTYPE svg PUBLIC "-//W3C//DTD SVG 1.1//EN" "http://www.w3.org/Graphics/SVG/1.1/DTD/svg11.dtd">
<svg version="1.1" id="Layer_1" xmlns="http://www.w3.org/2000/svg" xmlns:xlink="http://www.w3.org/1999/xlink" x="0px" y="0px"
	 width="104px" height="48px" viewBox="0 0 104 48" enable-background="new 0 0 104 48" xml:space="preserve">
<path fill="#FFFFFF" d="M68.2,14.3l5.2-14l-2.6-0.2c-1.4-0.1-2.8,0-3.1,0.1l-0.6,0.2l-3.6,10.7L60,21.7L56.4,11L52.8,0.3l-8.5-0.1
	L35.7,0v4.6L42,4.7l6.2,0.1l4.1,11c2.2,6,4.3,11.4,4.5,11.9l0.4,0.9l2.9-0.2l2.9-0.2C63,28.2,68.2,14.3,68.2,14.3z M23,15.1v-2.9h2
	c1.1,0,2.4,0.1,2.8,0.3l0.8,0.3v3.4l-0.7,0.6l-0.7,0.6l-2.1,0.3L23,18C23,18,23,15.1,23,15.1z M41.3,20.5c0-0.2,0.5-1.9,1.1-3.7
	l1.1-3.3l0.2,1c0.1,0.5,0.6,2.2,1.1,3.7l0.9,2.7h-4.6v-0.4H41.3z M23,25.3V22h3l1.9,3.3l1.9,3.3h8.8l0.6-2.3L40,24l3.6,0.1l3.6,0.1
	l0.7,2.2l0.7,2.2H53l-3.6-10l-3.6-10l-2.3,0.2L41.2,9l-3.4,9.3c-1.9,5.1-3.5,9.3-3.6,9.3c-0.3,0-4.1-6.4-4.1-7c0-0.3,0.5-0.9,1-1.4
	l1-0.9l0.5-1.7l0.5-1.7L32.7,13l-0.5-2l-1.3-1.1l-1.3-1.1H19v20h4C23,28.8,23,25.3,23,25.3z M69.4,32.4v-2.3h-4.6v4.6h4.6V32.4z
	 M84.3,40.6c1.4-3.6,2.5-6.8,2.5-7v-0.4l-2.4,0.2L82,33.5L80.6,38l-1.4,4.6l-0.3-0.8c-0.2-0.4-0.8-2.5-1.5-4.6l-1.2-3.8l-2.4-0.2
	L71.4,33v0.5c0,0.4,2,5.9,4.5,12.5l0.6,1.4l2.6-0.2l2.6-0.2L84.3,40.6L84.3,40.6z M69.4,42.4v-5.1h-4.6v10.2h4.6
	C69.4,47.5,69.4,42.4,69.4,42.4z M26.2,40.1l0.6-1.8l0.4,0.4c0.2,0.2,0.5,1,0.7,1.8l0.3,1.4h-2.6C25.6,41.9,26.2,40.1,26.2,40.1z
	 M24.2,46.5l0.3-1h5l0.3,1l0.3,1h4.6v-0.6c0-0.4-1.1-3.5-2.4-7l-2.4-6.4h-5.7l-2.4,6.4c-1.3,3.5-2.4,6.7-2.4,7v0.6H24
	C24,47.5,24.2,46.5,24.2,46.5z M5.7,43v-4.5l1.1,4.3L8,47.2l1.9,0.2l1.9,0.2l0.5-1.9c0.3-1.1,0.8-3.2,1.3-4.7l0.7-2.8v9.4h3.6V33.4
	h-6l-1,4l-1,4l-0.9-4l-0.9-4H1.5v14.2h4C5.5,47.6,5.7,43,5.7,43z M59.9,47.3l1.7-0.7l0.6-1l0.6-1V41l-1.2-1.1l-1.2-1.1L57.7,38
	c-3-0.8-3.3-1-2.8-1.8l0.3-0.5H57l0.7,1l0.7,1l1.9-0.3l1.9-0.3v-1.8L61,34.2L59.8,33l-2.3-0.3l-2.3-0.3L53.3,33l-1.9,0.6l-0.8,1.5
	L50,36.8l0.3,1.1c0.2,0.6,0.7,1.5,1.1,2l0.8,0.9l2.7,0.8l2.7,0.8L58,43l0.3,0.5l-0.7,0.7L56.8,45L56,44.6c-0.5-0.2-1.1-0.8-1.4-1.3
	l-0.5-1h-4l-0.2,0.4l-0.2,0.4l0.7,1.7l0.7,1.7l1.7,0.7l1.7,0.7h3.8L59.9,47.3L59.9,47.3z M45.7,47.3l1.7-0.7l0.6-1l0.6-1V41
	l-1.2-1.1l-1.2-1.1L43.4,38c-3-0.8-3.3-1-2.8-1.8l0.3-0.5h1.8l0.7,1l0.7,1l1.9-0.3l1.9-0.3v-1.8l-1.2-1.2l-1.2-1.2l-2.3-0.3
	l-2.3-0.3L39,32.9l-1.9,0.6L36.3,35l-0.8,1.5l0.3,1.1c0.2,0.6,0.7,1.5,1.1,2l0.8,0.9l2.7,0.8l2.7,0.8l0.3,0.5l0.3,0.5L43,43.8
	L42.5,45l-0.9-0.3c-0.5-0.2-1.1-0.8-1.4-1.3l-0.5-1h-4l-0.2,0.4l-0.2,0.4l0.7,1.7l0.7,1.7l1.7,0.7l1.7,0.7h3.8L45.7,47.3L45.7,47.3z
	 M100.5,43.9h-7.6v-2.6H98v-3h-5.2v-2H98v-3H87.8v14.2h12.8v-3.6L100.5,43.9z M100.5,24.5H79.6v-7.6h8.7v-4.6h-8.6V5.1h8.6V0H74
	v28.6h26.6L100.5,24.5L100.5,24.5z M100.5,17.9h-4.6V0h-4.6v21.4h9.2V17.9z M0,5.1h9.2v23.4h5.6V5.1h17.8V0H0C0,0,0,5.1,0,5.1z"/>
</svg>
